<svg width="30" height="30" viewBox="0 0 30 30" fill="none" xmlns="http://www.w3.org/2000/svg">
<path d="M13.3356 2.0584C13.8529 0.466231 16.1054 0.466231 16.6227 2.0584L18.9205 9.13033C19.1519 9.84237 19.8154 10.3245 20.5641 10.3245L28 10.3245C29.6741 10.3245 30.3701 12.4667 29.0157 13.4507L23 17.8214C22.3943 18.2615 22.1409 19.0415 22.3722 19.7535L24.67 26.8255C25.1873 28.4177 23.365 29.7416 22.0107 28.7576L15.9949 24.3869C15.3892 23.9469 14.569 23.9469 13.9634 24.3869L7.94761 28.7576C6.59323 29.7416 4.77092 28.4177 5.28825 26.8255L7.58606 19.7535C7.81742 19.0415 7.56397 18.2615 6.95827 17.8214L0.942525 13.4507C-0.411854 12.4667 0.284205 10.3245 1.95831 10.3245L9.39418 10.3245C10.1429 10.3245 10.8064 9.84237 11.0378 9.13033L13.3356 2.0584Z" fill="#FFB545"/>
</svg>
