<svg width="62" height="62" viewBox="0 0 62 62" fill="none" xmlns="http://www.w3.org/2000/svg">
<path d="M10.5048 51.9373C7.93942 49.3719 9.64038 43.9902 8.32981 40.8393C7.01923 37.6883 2 34.9277 2 31.4421C2 27.9566 6.96346 25.3075 8.32981 22.045C9.69615 18.7825 7.93942 13.5123 10.5048 10.9469C13.0702 8.38156 18.4519 10.0825 21.6029 8.77195C24.7538 7.46137 27.5144 2.44214 31 2.44214C34.4856 2.44214 37.1346 7.4056 40.3971 8.77195C43.6596 10.1383 48.9298 8.38156 51.4952 10.9469C54.0606 13.5123 52.3596 18.8941 53.6702 22.045C54.9808 25.196 60 27.9566 60 31.4421C60 34.9277 55.0365 37.5768 53.6702 40.8393C52.3038 44.1018 54.0606 49.3719 51.4952 51.9373C48.9298 54.5027 43.5481 52.8018 40.3971 54.1123C37.2462 55.4229 34.4856 60.4421 31 60.4421C27.5144 60.4421 24.8654 55.4787 21.6029 54.1123C18.3404 52.746 13.0702 54.5027 10.5048 51.9373Z" stroke="#303030" stroke-width="3" stroke-linecap="round" stroke-linejoin="round"/>
<path d="M43 24.4421L26.9909 40.4421L19 32.4421" stroke="#303030" stroke-width="3" stroke-linecap="round" stroke-linejoin="round"/>
</svg>
