<svg width="56" height="55" viewBox="0 0 56 55" fill="none" xmlns="http://www.w3.org/2000/svg">
<path d="M27.8848 39.875C34.7193 39.875 40.2598 34.3345 40.2598 27.5C40.2598 20.6655 34.7193 15.125 27.8848 15.125C21.0502 15.125 15.5098 20.6655 15.5098 27.5C15.5098 34.3345 21.0502 39.875 27.8848 39.875Z" stroke="#393939" stroke-width="3" stroke-linecap="round" stroke-linejoin="round"/>
<path d="M42.2445 11.2837C42.8977 11.8853 43.5164 12.504 44.1008 13.1399L51.1391 14.1454C52.2859 16.137 53.1698 18.2688 53.7687 20.4876L49.4891 26.1853C49.4891 26.1853 49.5664 27.9384 49.4891 28.8149L53.7687 34.5126C53.1726 36.7323 52.2885 38.8645 51.1391 40.8548L44.1008 41.8603C44.1008 41.8603 42.8891 43.1235 42.2445 43.7165L41.2391 50.7548C39.2474 51.9016 37.1156 52.7855 34.8969 53.3845L29.1992 49.1048C28.3244 49.1821 27.4444 49.1821 26.5695 49.1048L20.8719 53.3845C18.6522 52.7883 16.52 51.9042 14.5297 50.7548L13.5242 43.7165C12.8883 43.1149 12.2695 42.4962 11.668 41.8603L4.62969 40.8548C3.48289 38.8632 2.59897 36.7314 2 34.5126L6.27969 28.8149C6.27969 28.8149 6.20234 27.0618 6.27969 26.1853L2 20.4876C2.5962 18.2679 3.48026 16.1357 4.62969 14.1454L11.668 13.1399C12.2695 12.504 12.8883 11.8853 13.5242 11.2837L14.5297 4.24541C16.5213 3.09861 18.6531 2.21469 20.8719 1.61572L26.5695 5.89541C27.4444 5.81805 28.3244 5.81805 29.1992 5.89541L34.8969 1.61572C37.1166 2.21192 39.2487 3.09598 41.2391 4.24541L42.2445 11.2837Z" stroke="#393939" stroke-width="3" stroke-linecap="round" stroke-linejoin="round"/>
</svg>
