<svg width="681" height="675" viewBox="0 0 681 675" fill="none" xmlns="http://www.w3.org/2000/svg">
<path d="M278.743 87.1688C276.069 77.1922 265.787 71.2085 256.022 74.5732C200.311 93.7687 152.327 130.936 119.8 180.489C83.8405 235.27 69.2822 301.361 78.8963 366.18C88.5104 430.999 121.625 490.02 171.937 532.004C222.248 573.989 286.242 596.006 351.735 593.864C417.229 591.722 479.647 565.57 527.107 520.387C574.568 475.205 603.755 414.146 609.113 348.838C614.471 283.529 595.625 218.53 556.163 166.216C520.467 118.895 470.157 84.9425 413.311 69.4285C403.347 66.7092 393.477 73.352 391.461 83.4819C389.446 93.6118 396.054 103.383 405.986 106.216C453.834 119.863 496.137 148.75 526.303 188.741C560.237 233.726 576.443 289.619 571.835 345.779C567.228 401.94 542.129 454.444 501.318 493.298C460.506 532.151 406.831 554.639 350.513 556.481C294.194 558.323 239.165 539.39 195.901 503.287C152.638 467.184 124.162 416.431 115.894 360.692C107.627 304.954 120.146 248.121 151.068 201.014C178.556 159.138 218.881 127.548 265.734 110.803C275.46 107.327 281.416 97.1453 278.743 87.1688Z" fill="#DFDFDF"/>
<g filter="url(#filter0_bdi_1_2087)">
<rect x="218.006" y="216.3" width="234.007" height="234.007" rx="117.003" transform="rotate(-0.561514 218.006 216.3)" fill="url(#paint0_linear_1_2087)" fill-opacity="0.93" shape-rendering="crispEdges"/>
</g>
<g filter="url(#filter1_bdi_1_2087)">
<rect x="236.983" y="234.909" width="196.42" height="196.42" rx="98.2101" transform="rotate(-0.561514 236.983 234.909)" fill="url(#paint1_linear_1_2087)" fill-opacity="0.93" shape-rendering="crispEdges"/>
</g>
<path d="M273.994 326.207C273.994 323.034 274.697 320.291 276.102 317.979C277.553 315.667 279.434 313.899 281.746 312.675C284.058 311.406 286.574 310.771 289.294 310.771C291.561 310.771 293.578 311.066 295.346 311.655C297.114 312.244 298.701 313.038 300.106 314.035C301.557 315.032 302.804 316.12 303.846 317.299V306.351C301.897 304.81 299.766 303.608 297.454 302.747C295.188 301.886 292.309 301.455 288.818 301.455C285.192 301.455 281.814 302.044 278.686 303.223C275.604 304.402 272.906 306.102 270.594 308.323C268.328 310.544 266.56 313.174 265.29 316.211C264.066 319.203 263.454 322.535 263.454 326.207C263.454 329.879 264.066 333.234 265.29 336.271C266.56 339.263 268.328 341.87 270.594 344.091C272.906 346.312 275.604 348.012 278.686 349.191C281.814 350.37 285.192 350.959 288.818 350.959C292.309 350.959 295.188 350.528 297.454 349.667C299.766 348.806 301.897 347.604 303.846 346.063V335.115C302.804 336.294 301.557 337.382 300.106 338.379C298.701 339.376 297.114 340.17 295.346 340.759C293.578 341.348 291.561 341.643 289.294 341.643C286.574 341.643 284.058 341.031 281.746 339.807C279.434 338.538 277.553 336.747 276.102 334.435C274.697 332.078 273.994 329.335 273.994 326.207ZM324.334 327.839L338.614 350.007H350.106L334.602 327.839H324.334ZM313.522 302.407V350.007H323.246V302.407H313.522ZM319.438 310.703H328.89C330.613 310.703 332.086 310.998 333.31 311.587C334.579 312.131 335.554 312.947 336.234 314.035C336.914 315.078 337.254 316.347 337.254 317.843C337.254 319.339 336.914 320.631 336.234 321.719C335.554 322.762 334.579 323.578 333.31 324.167C332.086 324.711 330.613 324.983 328.89 324.983H319.438V332.735H329.502C333.265 332.735 336.461 332.1 339.09 330.831C341.719 329.562 343.737 327.794 345.142 325.527C346.547 323.215 347.25 320.563 347.25 317.571C347.25 314.534 346.547 311.882 345.142 309.615C343.737 307.348 341.719 305.58 339.09 304.311C336.461 303.042 333.265 302.407 329.502 302.407H319.438V310.703ZM366.162 323.283L379.966 345.587L393.77 323.283L396.83 350.007H406.962L399.89 300.027L379.966 330.763L360.042 300.027L352.97 350.007H363.102L366.162 323.283Z" fill="#303030"/>
<g filter="url(#filter2_bdi_1_2087)">
<path d="M450.659 148.937C450.299 112.142 479.835 82.0206 516.631 81.66C553.426 81.2994 583.547 110.836 583.908 147.631C584.268 184.427 554.732 214.548 517.936 214.908C481.141 215.269 451.02 185.733 450.659 148.937Z" fill="url(#paint2_linear_1_2087)" fill-opacity="0.93" shape-rendering="crispEdges"/>
</g>
<circle cx="503.616" cy="163.616" r="16.5" fill="#E0D9FF"/>
<path d="M501.116 151.116V164.546C501.116 164.962 501.284 165.362 501.584 165.656C501.884 165.951 502.291 166.116 502.716 166.116H531.516C531.94 166.116 532.347 165.951 532.647 165.656C532.947 165.362 533.116 164.962 533.116 164.546V151.116" stroke="#6B49F1" stroke-width="3" stroke-linecap="round" stroke-linejoin="round"/>
<path d="M501.699 130.116H532.532C532.894 130.119 533.245 130.242 533.534 130.465C533.823 130.689 534.034 131.002 534.137 131.359L537.116 142.116H497.116L500.095 131.359C500.198 131.002 500.409 130.689 500.698 130.465C500.986 130.242 501.337 130.119 501.699 130.116V130.116Z" stroke="#6B49F1" stroke-width="3" stroke-linecap="round" stroke-linejoin="round"/>
<path d="M511.116 142.116V145.45C511.116 147.218 510.378 148.913 509.065 150.164C507.753 151.414 505.972 152.116 504.116 152.116C502.259 152.116 500.479 151.414 499.166 150.164C497.853 148.913 497.116 147.218 497.116 145.45V142.116" stroke="#6B49F1" stroke-width="3" stroke-linecap="round" stroke-linejoin="round"/>
<path d="M523.116 142.116V145.45C523.116 147.218 522.484 148.913 521.358 150.164C520.233 151.414 518.707 152.116 517.116 152.116C515.524 152.116 513.998 151.414 512.873 150.164C511.748 148.913 511.116 147.218 511.116 145.45V142.116" stroke="#6B49F1" stroke-width="3" stroke-linecap="round" stroke-linejoin="round"/>
<path d="M537.116 142.116V145.45C537.116 147.218 536.378 148.913 535.065 150.164C533.753 151.414 531.972 152.116 530.116 152.116C528.259 152.116 526.479 151.414 525.166 150.164C523.853 148.913 523.116 147.218 523.116 145.45V142.116" stroke="#6B49F1" stroke-width="3" stroke-linecap="round" stroke-linejoin="round"/>
<g filter="url(#filter3_bdi_1_2087)">
<rect x="519.006" y="253.313" width="133.255" height="133.255" rx="66.6274" transform="rotate(-0.561514 519.006 253.313)" fill="url(#paint3_linear_1_2087)" fill-opacity="0.93" shape-rendering="crispEdges"/>
</g>
<circle cx="598.506" cy="297.507" r="16.5" fill="#F9DCEF"/>
<path d="M573.006 301.238L573.006 336.776C573.006 338.561 574.461 340.007 576.256 340.007L595.756 340.007C597.551 340.007 599.006 338.561 599.006 336.776L599.006 301.238C599.006 299.454 597.551 298.007 595.756 298.007L576.256 298.007C574.461 298.007 573.006 299.454 573.006 301.238Z" stroke="#FF65CB" stroke-width="3" stroke-linecap="round" stroke-linejoin="round"/>
<path d="M586.006 330.007C584.902 330.007 584.006 330.903 584.006 332.007C584.006 333.112 584.902 334.007 586.006 334.007C587.111 334.007 588.006 333.112 588.006 332.007C588.006 330.903 587.111 330.007 586.006 330.007Z" fill="#FF65CB"/>
<g filter="url(#filter4_bdi_1_2087)">
<rect x="450.006" y="419.313" width="133.255" height="133.255" rx="66.6274" transform="rotate(-0.561514 450.006 419.313)" fill="url(#paint4_linear_1_2087)" fill-opacity="0.93" shape-rendering="crispEdges"/>
</g>
<circle cx="534.506" cy="498.507" r="16.5" fill="#C8E7CB"/>
<path d="M498.006 471.007H536.006V497.452C536.006 497.864 535.84 498.26 535.543 498.551C535.246 498.843 534.843 499.007 534.423 499.007H499.59C499.17 499.007 498.767 498.843 498.47 498.551C498.173 498.26 498.006 497.864 498.006 497.452V471.007Z" stroke="#54CC60" stroke-width="3" stroke-linecap="round" stroke-linejoin="round"/>
<path d="M536.006 471.007L517.006 488.007L498.006 471.007" stroke="#54CC60" stroke-width="3" stroke-linecap="round" stroke-linejoin="round"/>
<g filter="url(#filter5_bdi_1_2087)">
<rect x="277.006" y="500.313" width="133.255" height="133.255" rx="66.6274" transform="rotate(-0.561514 277.006 500.313)" fill="url(#paint5_linear_1_2087)" fill-opacity="0.93" shape-rendering="crispEdges"/>
</g>
<circle cx="326.506" cy="558.507" r="16.5" fill="#F0E4D1"/>
<path d="M322.248 572.174C320.258 568.821 319.56 564.858 320.286 561.028C321.012 557.198 323.111 553.764 326.19 551.372C329.268 548.981 333.114 547.795 337.005 548.038C340.895 548.281 344.563 549.937 347.32 552.693C350.077 555.45 351.732 559.118 351.975 563.009C352.218 566.9 351.033 570.745 348.641 573.824C346.249 576.902 342.816 579.001 338.986 579.727C335.155 580.453 331.192 579.756 327.84 577.766L322.314 579.341C322.086 579.406 321.846 579.408 321.617 579.348C321.388 579.288 321.179 579.168 321.012 579.001C320.845 578.834 320.725 578.625 320.666 578.396C320.606 578.168 320.608 577.927 320.672 577.699L322.248 572.174Z" stroke="#FFB545" stroke-width="3" stroke-linecap="round" stroke-linejoin="round"/>
<path d="M335.006 580.31C335.787 582.545 337.053 584.577 338.711 586.261C340.37 587.945 342.381 589.238 344.598 590.046C346.816 590.855 349.184 591.159 351.533 590.936C353.882 590.714 356.152 589.971 358.179 588.76V588.76L363.696 590.339C363.923 590.403 364.163 590.406 364.391 590.346C364.62 590.286 364.828 590.166 364.995 589.998C365.162 589.831 365.282 589.622 365.341 589.392C365.401 589.163 365.399 588.922 365.335 588.694L363.762 583.157C365.166 580.791 365.938 578.101 366.002 575.347C366.066 572.594 365.421 569.871 364.128 567.442C362.836 565.012 360.94 562.959 358.624 561.482C356.309 560.004 353.653 559.151 350.913 559.007" stroke="#FFB545" stroke-width="3" stroke-linecap="round" stroke-linejoin="round"/>
<g filter="url(#filter6_bdi_1_2087)">
<rect x="107.006" y="419.313" width="133.255" height="133.255" rx="66.6274" transform="rotate(-0.561514 107.006 419.313)" fill="url(#paint6_linear_1_2087)" fill-opacity="0.93" shape-rendering="crispEdges"/>
</g>
<circle cx="158.506" cy="468.507" r="16.5" fill="#FFDEDE"/>
<path d="M157.006 507.007C157.004 506.355 157.134 505.71 157.389 505.107C157.644 504.504 158.02 503.957 158.494 503.496C158.968 503.035 159.531 502.67 160.151 502.422C160.771 502.174 161.436 502.048 162.106 502.051H191.006V469.007H162.106C161.436 469.004 160.771 469.131 160.151 469.379C159.531 469.627 158.968 469.992 158.494 470.453C158.02 470.914 157.644 471.461 157.389 472.064C157.134 472.666 157.004 473.312 157.006 473.964V507.007Z" stroke="#FF5F5F" stroke-width="3" stroke-linecap="round" stroke-linejoin="round"/>
<path d="M157.006 507.007V509.007H187.006" stroke="#FF5F5F" stroke-width="3" stroke-linecap="round" stroke-linejoin="round"/>
<g filter="url(#filter7_bdi_1_2087)">
<rect x="28.0063" y="252.313" width="133.255" height="133.255" rx="66.6274" transform="rotate(-0.561514 28.0063 252.313)" fill="url(#paint7_linear_1_2087)" fill-opacity="0.93" shape-rendering="crispEdges"/>
</g>
<path d="M92.0063 319.882C96.1485 319.882 99.5063 316.524 99.5063 312.382C99.5063 308.24 96.1485 304.882 92.0063 304.882C87.8642 304.882 84.5063 308.24 84.5063 312.382C84.5063 316.524 87.8642 319.882 92.0063 319.882Z" stroke="#1ACCB7" stroke-width="3" stroke-linecap="round" stroke-linejoin="round"/>
<circle cx="103.506" cy="336.507" r="16.5" fill="#C6ECE6"/>
<path d="M110.756 312.382C110.756 329.257 92.0063 342.382 92.0063 342.382C92.0063 342.382 73.2563 329.257 73.2563 312.382C73.2563 307.409 75.2318 302.64 78.7481 299.124C82.2644 295.608 87.0335 293.632 92.0063 293.632C96.9792 293.632 101.748 295.608 105.265 299.124C108.781 302.64 110.756 307.409 110.756 312.382V312.382Z" stroke="#1ACCB7" stroke-width="3" stroke-linecap="round" stroke-linejoin="round"/>
<g filter="url(#filter8_bdi_1_2087)">
<rect x="107.006" y="82.313" width="133.255" height="133.255" rx="66.6274" transform="rotate(-0.561514 107.006 82.313)" fill="url(#paint8_linear_1_2087)" fill-opacity="0.93" shape-rendering="crispEdges"/>
</g>
<circle cx="190.506" cy="161.507" r="16.5" fill="#D1EAF2"/>
<path d="M182.819 159.82H158.73L152.845 127.462C152.776 127.074 152.574 126.723 152.273 126.469C151.973 126.215 151.593 126.073 151.199 126.07H147.381" stroke="#37C4F0" stroke-width="3" stroke-linecap="round" stroke-linejoin="round"/>
<path d="M160.881 168.257C163.211 168.257 165.1 166.368 165.1 164.038C165.1 161.708 163.211 159.82 160.881 159.82C158.551 159.82 156.663 161.708 156.663 164.038C156.663 166.368 158.551 168.257 160.881 168.257Z" stroke="#37C4F0" stroke-width="3" stroke-linecap="round" stroke-linejoin="round"/>
<path d="M182.819 168.257C185.149 168.257 187.038 166.368 187.038 164.038C187.038 161.708 185.149 159.82 182.819 159.82C180.489 159.82 178.6 161.708 178.6 164.038C178.6 166.368 180.489 168.257 182.819 168.257Z" stroke="#37C4F0" stroke-width="3" stroke-linecap="round" stroke-linejoin="round"/>
<path d="M157.19 151.382H183.684C184.473 151.384 185.237 151.109 185.843 150.603C186.448 150.098 186.856 149.395 186.995 148.619L189.569 134.507H154.131" stroke="#37C4F0" stroke-width="3" stroke-linecap="round" stroke-linejoin="round"/>
<g filter="url(#filter9_bdi_1_2087)">
<rect x="218.006" y="216.3" width="234.007" height="234.007" rx="117.003" transform="rotate(-0.561514 218.006 216.3)" fill="url(#paint9_linear_1_2087)" fill-opacity="0.93" shape-rendering="crispEdges"/>
</g>
<g filter="url(#filter10_bdi_1_2087)">
<rect x="236.983" y="234.909" width="196.42" height="196.42" rx="98.2101" transform="rotate(-0.561514 236.983 234.909)" fill="url(#paint10_linear_1_2087)" fill-opacity="0.93" shape-rendering="crispEdges"/>
</g>
<path d="M273.994 326.207C273.994 323.034 274.697 320.291 276.102 317.979C277.553 315.667 279.434 313.899 281.746 312.675C284.058 311.406 286.574 310.771 289.294 310.771C291.561 310.771 293.578 311.066 295.346 311.655C297.114 312.244 298.701 313.038 300.106 314.035C301.557 315.032 302.804 316.12 303.846 317.299V306.351C301.897 304.81 299.766 303.608 297.454 302.747C295.188 301.886 292.309 301.455 288.818 301.455C285.192 301.455 281.814 302.044 278.686 303.223C275.604 304.402 272.906 306.102 270.594 308.323C268.328 310.544 266.56 313.174 265.29 316.211C264.066 319.203 263.454 322.535 263.454 326.207C263.454 329.879 264.066 333.234 265.29 336.271C266.56 339.263 268.328 341.87 270.594 344.091C272.906 346.312 275.604 348.012 278.686 349.191C281.814 350.37 285.192 350.959 288.818 350.959C292.309 350.959 295.188 350.528 297.454 349.667C299.766 348.806 301.897 347.604 303.846 346.063V335.115C302.804 336.294 301.557 337.382 300.106 338.379C298.701 339.376 297.114 340.17 295.346 340.759C293.578 341.348 291.561 341.643 289.294 341.643C286.574 341.643 284.058 341.031 281.746 339.807C279.434 338.538 277.553 336.747 276.102 334.435C274.697 332.078 273.994 329.335 273.994 326.207ZM324.334 327.839L338.614 350.007H350.106L334.602 327.839H324.334ZM313.522 302.407V350.007H323.246V302.407H313.522ZM319.438 310.703H328.89C330.613 310.703 332.086 310.998 333.31 311.587C334.579 312.131 335.554 312.947 336.234 314.035C336.914 315.078 337.254 316.347 337.254 317.843C337.254 319.339 336.914 320.631 336.234 321.719C335.554 322.762 334.579 323.578 333.31 324.167C332.086 324.711 330.613 324.983 328.89 324.983H319.438V332.735H329.502C333.265 332.735 336.461 332.1 339.09 330.831C341.719 329.562 343.737 327.794 345.142 325.527C346.547 323.215 347.25 320.563 347.25 317.571C347.25 314.534 346.547 311.882 345.142 309.615C343.737 307.348 341.719 305.58 339.09 304.311C336.461 303.042 333.265 302.407 329.502 302.407H319.438V310.703ZM366.162 323.283L379.966 345.587L393.77 323.283L396.83 350.007H406.962L399.89 300.027L379.966 330.763L360.042 300.027L352.97 350.007H363.102L366.162 323.283Z" fill="#303030"/>
<defs>
<filter id="filter0_bdi_1_2087" x="191.147" y="193.709" width="290.007" height="297.446" filterUnits="userSpaceOnUse" color-interpolation-filters="sRGB">
<feFlood flood-opacity="0" result="BackgroundImageFix"/>
<feGaussianBlur in="BackgroundImageFix" stdDeviation="10.7192"/>
<feComposite in2="SourceAlpha" operator="in" result="effect1_backgroundBlur_1_2087"/>
<feColorMatrix in="SourceAlpha" type="matrix" values="0 0 0 0 0 0 0 0 0 0 0 0 0 0 0 0 0 0 127 0" result="hardAlpha"/>
<feOffset dy="14"/>
<feGaussianBlur stdDeviation="14"/>
<feComposite in2="hardAlpha" operator="out"/>
<feColorMatrix type="matrix" values="0 0 0 0 0.804167 0 0 0 0 0.804167 0 0 0 0 0.804167 0 0 0 0.25 0"/>
<feBlend mode="normal" in2="effect1_backgroundBlur_1_2087" result="effect2_dropShadow_1_2087"/>
<feBlend mode="normal" in="SourceGraphic" in2="effect2_dropShadow_1_2087" result="shape"/>
<feColorMatrix in="SourceAlpha" type="matrix" values="0 0 0 0 0 0 0 0 0 0 0 0 0 0 0 0 0 0 127 0" result="hardAlpha"/>
<feOffset dx="-2.57262" dy="2.57262"/>
<feComposite in2="hardAlpha" operator="arithmetic" k2="-1" k3="1"/>
<feColorMatrix type="matrix" values="0 0 0 0 1 0 0 0 0 1 0 0 0 0 1 0 0 0 1 0"/>
<feBlend mode="normal" in2="shape" result="effect3_innerShadow_1_2087"/>
</filter>
<filter id="filter1_bdi_1_2087" x="209.94" y="212.503" width="252.42" height="259.859" filterUnits="userSpaceOnUse" color-interpolation-filters="sRGB">
<feFlood flood-opacity="0" result="BackgroundImageFix"/>
<feGaussianBlur in="BackgroundImageFix" stdDeviation="10.7192"/>
<feComposite in2="SourceAlpha" operator="in" result="effect1_backgroundBlur_1_2087"/>
<feColorMatrix in="SourceAlpha" type="matrix" values="0 0 0 0 0 0 0 0 0 0 0 0 0 0 0 0 0 0 127 0" result="hardAlpha"/>
<feOffset dy="14"/>
<feGaussianBlur stdDeviation="14"/>
<feComposite in2="hardAlpha" operator="out"/>
<feColorMatrix type="matrix" values="0 0 0 0 0.804167 0 0 0 0 0.804167 0 0 0 0 0.804167 0 0 0 0.25 0"/>
<feBlend mode="normal" in2="effect1_backgroundBlur_1_2087" result="effect2_dropShadow_1_2087"/>
<feBlend mode="normal" in="SourceGraphic" in2="effect2_dropShadow_1_2087" result="shape"/>
<feColorMatrix in="SourceAlpha" type="matrix" values="0 0 0 0 0 0 0 0 0 0 0 0 0 0 0 0 0 0 127 0" result="hardAlpha"/>
<feOffset dx="-2.57262" dy="2.57262"/>
<feComposite in2="hardAlpha" operator="arithmetic" k2="-1" k3="1"/>
<feColorMatrix type="matrix" values="0 0 0 0 1 0 0 0 0 1 0 0 0 0 1 0 0 0 1 0"/>
<feBlend mode="normal" in2="shape" result="effect3_innerShadow_1_2087"/>
</filter>
<filter id="filter2_bdi_1_2087" x="422.656" y="60.2183" width="189.255" height="196.693" filterUnits="userSpaceOnUse" color-interpolation-filters="sRGB">
<feFlood flood-opacity="0" result="BackgroundImageFix"/>
<feGaussianBlur in="BackgroundImageFix" stdDeviation="10.7192"/>
<feComposite in2="SourceAlpha" operator="in" result="effect1_backgroundBlur_1_2087"/>
<feColorMatrix in="SourceAlpha" type="matrix" values="0 0 0 0 0 0 0 0 0 0 0 0 0 0 0 0 0 0 127 0" result="hardAlpha"/>
<feOffset dy="14"/>
<feGaussianBlur stdDeviation="14"/>
<feComposite in2="hardAlpha" operator="out"/>
<feColorMatrix type="matrix" values="0 0 0 0 0.804167 0 0 0 0 0.804167 0 0 0 0 0.804167 0 0 0 0.25 0"/>
<feBlend mode="normal" in2="effect1_backgroundBlur_1_2087" result="effect2_dropShadow_1_2087"/>
<feBlend mode="normal" in="SourceGraphic" in2="effect2_dropShadow_1_2087" result="shape"/>
<feColorMatrix in="SourceAlpha" type="matrix" values="0 0 0 0 0 0 0 0 0 0 0 0 0 0 0 0 0 0 127 0" result="hardAlpha"/>
<feOffset dx="-2.57262" dy="2.57262"/>
<feComposite in2="hardAlpha" operator="arithmetic" k2="-1" k3="1"/>
<feColorMatrix type="matrix" values="0 0 0 0 1 0 0 0 0 1 0 0 0 0 1 0 0 0 1 0"/>
<feBlend mode="normal" in2="shape" result="effect3_innerShadow_1_2087"/>
</filter>
<filter id="filter3_bdi_1_2087" x="491.656" y="231.218" width="189.255" height="196.693" filterUnits="userSpaceOnUse" color-interpolation-filters="sRGB">
<feFlood flood-opacity="0" result="BackgroundImageFix"/>
<feGaussianBlur in="BackgroundImageFix" stdDeviation="10.7192"/>
<feComposite in2="SourceAlpha" operator="in" result="effect1_backgroundBlur_1_2087"/>
<feColorMatrix in="SourceAlpha" type="matrix" values="0 0 0 0 0 0 0 0 0 0 0 0 0 0 0 0 0 0 127 0" result="hardAlpha"/>
<feOffset dy="14"/>
<feGaussianBlur stdDeviation="14"/>
<feComposite in2="hardAlpha" operator="out"/>
<feColorMatrix type="matrix" values="0 0 0 0 0.804167 0 0 0 0 0.804167 0 0 0 0 0.804167 0 0 0 0.25 0"/>
<feBlend mode="normal" in2="effect1_backgroundBlur_1_2087" result="effect2_dropShadow_1_2087"/>
<feBlend mode="normal" in="SourceGraphic" in2="effect2_dropShadow_1_2087" result="shape"/>
<feColorMatrix in="SourceAlpha" type="matrix" values="0 0 0 0 0 0 0 0 0 0 0 0 0 0 0 0 0 0 127 0" result="hardAlpha"/>
<feOffset dx="-2.57262" dy="2.57262"/>
<feComposite in2="hardAlpha" operator="arithmetic" k2="-1" k3="1"/>
<feColorMatrix type="matrix" values="0 0 0 0 1 0 0 0 0 1 0 0 0 0 1 0 0 0 1 0"/>
<feBlend mode="normal" in2="shape" result="effect3_innerShadow_1_2087"/>
</filter>
<filter id="filter4_bdi_1_2087" x="422.656" y="397.218" width="189.255" height="196.693" filterUnits="userSpaceOnUse" color-interpolation-filters="sRGB">
<feFlood flood-opacity="0" result="BackgroundImageFix"/>
<feGaussianBlur in="BackgroundImageFix" stdDeviation="10.7192"/>
<feComposite in2="SourceAlpha" operator="in" result="effect1_backgroundBlur_1_2087"/>
<feColorMatrix in="SourceAlpha" type="matrix" values="0 0 0 0 0 0 0 0 0 0 0 0 0 0 0 0 0 0 127 0" result="hardAlpha"/>
<feOffset dy="14"/>
<feGaussianBlur stdDeviation="14"/>
<feComposite in2="hardAlpha" operator="out"/>
<feColorMatrix type="matrix" values="0 0 0 0 0.804167 0 0 0 0 0.804167 0 0 0 0 0.804167 0 0 0 0.25 0"/>
<feBlend mode="normal" in2="effect1_backgroundBlur_1_2087" result="effect2_dropShadow_1_2087"/>
<feBlend mode="normal" in="SourceGraphic" in2="effect2_dropShadow_1_2087" result="shape"/>
<feColorMatrix in="SourceAlpha" type="matrix" values="0 0 0 0 0 0 0 0 0 0 0 0 0 0 0 0 0 0 127 0" result="hardAlpha"/>
<feOffset dx="-2.57262" dy="2.57262"/>
<feComposite in2="hardAlpha" operator="arithmetic" k2="-1" k3="1"/>
<feColorMatrix type="matrix" values="0 0 0 0 1 0 0 0 0 1 0 0 0 0 1 0 0 0 1 0"/>
<feBlend mode="normal" in2="shape" result="effect3_innerShadow_1_2087"/>
</filter>
<filter id="filter5_bdi_1_2087" x="249.656" y="478.218" width="189.255" height="196.693" filterUnits="userSpaceOnUse" color-interpolation-filters="sRGB">
<feFlood flood-opacity="0" result="BackgroundImageFix"/>
<feGaussianBlur in="BackgroundImageFix" stdDeviation="10.7192"/>
<feComposite in2="SourceAlpha" operator="in" result="effect1_backgroundBlur_1_2087"/>
<feColorMatrix in="SourceAlpha" type="matrix" values="0 0 0 0 0 0 0 0 0 0 0 0 0 0 0 0 0 0 127 0" result="hardAlpha"/>
<feOffset dy="14"/>
<feGaussianBlur stdDeviation="14"/>
<feComposite in2="hardAlpha" operator="out"/>
<feColorMatrix type="matrix" values="0 0 0 0 0.804167 0 0 0 0 0.804167 0 0 0 0 0.804167 0 0 0 0.25 0"/>
<feBlend mode="normal" in2="effect1_backgroundBlur_1_2087" result="effect2_dropShadow_1_2087"/>
<feBlend mode="normal" in="SourceGraphic" in2="effect2_dropShadow_1_2087" result="shape"/>
<feColorMatrix in="SourceAlpha" type="matrix" values="0 0 0 0 0 0 0 0 0 0 0 0 0 0 0 0 0 0 127 0" result="hardAlpha"/>
<feOffset dx="-2.57262" dy="2.57262"/>
<feComposite in2="hardAlpha" operator="arithmetic" k2="-1" k3="1"/>
<feColorMatrix type="matrix" values="0 0 0 0 1 0 0 0 0 1 0 0 0 0 1 0 0 0 1 0"/>
<feBlend mode="normal" in2="shape" result="effect3_innerShadow_1_2087"/>
</filter>
<filter id="filter6_bdi_1_2087" x="79.6562" y="397.218" width="189.255" height="196.693" filterUnits="userSpaceOnUse" color-interpolation-filters="sRGB">
<feFlood flood-opacity="0" result="BackgroundImageFix"/>
<feGaussianBlur in="BackgroundImageFix" stdDeviation="10.7192"/>
<feComposite in2="SourceAlpha" operator="in" result="effect1_backgroundBlur_1_2087"/>
<feColorMatrix in="SourceAlpha" type="matrix" values="0 0 0 0 0 0 0 0 0 0 0 0 0 0 0 0 0 0 127 0" result="hardAlpha"/>
<feOffset dy="14"/>
<feGaussianBlur stdDeviation="14"/>
<feComposite in2="hardAlpha" operator="out"/>
<feColorMatrix type="matrix" values="0 0 0 0 0.804167 0 0 0 0 0.804167 0 0 0 0 0.804167 0 0 0 0.25 0"/>
<feBlend mode="normal" in2="effect1_backgroundBlur_1_2087" result="effect2_dropShadow_1_2087"/>
<feBlend mode="normal" in="SourceGraphic" in2="effect2_dropShadow_1_2087" result="shape"/>
<feColorMatrix in="SourceAlpha" type="matrix" values="0 0 0 0 0 0 0 0 0 0 0 0 0 0 0 0 0 0 127 0" result="hardAlpha"/>
<feOffset dx="-2.57262" dy="2.57262"/>
<feComposite in2="hardAlpha" operator="arithmetic" k2="-1" k3="1"/>
<feColorMatrix type="matrix" values="0 0 0 0 1 0 0 0 0 1 0 0 0 0 1 0 0 0 1 0"/>
<feBlend mode="normal" in2="shape" result="effect3_innerShadow_1_2087"/>
</filter>
<filter id="filter7_bdi_1_2087" x="0.65625" y="230.218" width="189.255" height="196.693" filterUnits="userSpaceOnUse" color-interpolation-filters="sRGB">
<feFlood flood-opacity="0" result="BackgroundImageFix"/>
<feGaussianBlur in="BackgroundImageFix" stdDeviation="10.7192"/>
<feComposite in2="SourceAlpha" operator="in" result="effect1_backgroundBlur_1_2087"/>
<feColorMatrix in="SourceAlpha" type="matrix" values="0 0 0 0 0 0 0 0 0 0 0 0 0 0 0 0 0 0 127 0" result="hardAlpha"/>
<feOffset dy="14"/>
<feGaussianBlur stdDeviation="14"/>
<feComposite in2="hardAlpha" operator="out"/>
<feColorMatrix type="matrix" values="0 0 0 0 0.804167 0 0 0 0 0.804167 0 0 0 0 0.804167 0 0 0 0.25 0"/>
<feBlend mode="normal" in2="effect1_backgroundBlur_1_2087" result="effect2_dropShadow_1_2087"/>
<feBlend mode="normal" in="SourceGraphic" in2="effect2_dropShadow_1_2087" result="shape"/>
<feColorMatrix in="SourceAlpha" type="matrix" values="0 0 0 0 0 0 0 0 0 0 0 0 0 0 0 0 0 0 127 0" result="hardAlpha"/>
<feOffset dx="-2.57262" dy="2.57262"/>
<feComposite in2="hardAlpha" operator="arithmetic" k2="-1" k3="1"/>
<feColorMatrix type="matrix" values="0 0 0 0 1 0 0 0 0 1 0 0 0 0 1 0 0 0 1 0"/>
<feBlend mode="normal" in2="shape" result="effect3_innerShadow_1_2087"/>
</filter>
<filter id="filter8_bdi_1_2087" x="79.6562" y="60.2183" width="189.255" height="196.693" filterUnits="userSpaceOnUse" color-interpolation-filters="sRGB">
<feFlood flood-opacity="0" result="BackgroundImageFix"/>
<feGaussianBlur in="BackgroundImageFix" stdDeviation="10.7192"/>
<feComposite in2="SourceAlpha" operator="in" result="effect1_backgroundBlur_1_2087"/>
<feColorMatrix in="SourceAlpha" type="matrix" values="0 0 0 0 0 0 0 0 0 0 0 0 0 0 0 0 0 0 127 0" result="hardAlpha"/>
<feOffset dy="14"/>
<feGaussianBlur stdDeviation="14"/>
<feComposite in2="hardAlpha" operator="out"/>
<feColorMatrix type="matrix" values="0 0 0 0 0.804167 0 0 0 0 0.804167 0 0 0 0 0.804167 0 0 0 0.25 0"/>
<feBlend mode="normal" in2="effect1_backgroundBlur_1_2087" result="effect2_dropShadow_1_2087"/>
<feBlend mode="normal" in="SourceGraphic" in2="effect2_dropShadow_1_2087" result="shape"/>
<feColorMatrix in="SourceAlpha" type="matrix" values="0 0 0 0 0 0 0 0 0 0 0 0 0 0 0 0 0 0 127 0" result="hardAlpha"/>
<feOffset dx="-2.57262" dy="2.57262"/>
<feComposite in2="hardAlpha" operator="arithmetic" k2="-1" k3="1"/>
<feColorMatrix type="matrix" values="0 0 0 0 1 0 0 0 0 1 0 0 0 0 1 0 0 0 1 0"/>
<feBlend mode="normal" in2="shape" result="effect3_innerShadow_1_2087"/>
</filter>
<filter id="filter9_bdi_1_2087" x="191.147" y="193.709" width="290.007" height="297.446" filterUnits="userSpaceOnUse" color-interpolation-filters="sRGB">
<feFlood flood-opacity="0" result="BackgroundImageFix"/>
<feGaussianBlur in="BackgroundImageFix" stdDeviation="10.7192"/>
<feComposite in2="SourceAlpha" operator="in" result="effect1_backgroundBlur_1_2087"/>
<feColorMatrix in="SourceAlpha" type="matrix" values="0 0 0 0 0 0 0 0 0 0 0 0 0 0 0 0 0 0 127 0" result="hardAlpha"/>
<feOffset dy="14"/>
<feGaussianBlur stdDeviation="14"/>
<feComposite in2="hardAlpha" operator="out"/>
<feColorMatrix type="matrix" values="0 0 0 0 0.804167 0 0 0 0 0.804167 0 0 0 0 0.804167 0 0 0 0.25 0"/>
<feBlend mode="normal" in2="effect1_backgroundBlur_1_2087" result="effect2_dropShadow_1_2087"/>
<feBlend mode="normal" in="SourceGraphic" in2="effect2_dropShadow_1_2087" result="shape"/>
<feColorMatrix in="SourceAlpha" type="matrix" values="0 0 0 0 0 0 0 0 0 0 0 0 0 0 0 0 0 0 127 0" result="hardAlpha"/>
<feOffset dx="-2.57262" dy="2.57262"/>
<feComposite in2="hardAlpha" operator="arithmetic" k2="-1" k3="1"/>
<feColorMatrix type="matrix" values="0 0 0 0 1 0 0 0 0 1 0 0 0 0 1 0 0 0 1 0"/>
<feBlend mode="normal" in2="shape" result="effect3_innerShadow_1_2087"/>
</filter>
<filter id="filter10_bdi_1_2087" x="209.94" y="212.503" width="252.42" height="259.859" filterUnits="userSpaceOnUse" color-interpolation-filters="sRGB">
<feFlood flood-opacity="0" result="BackgroundImageFix"/>
<feGaussianBlur in="BackgroundImageFix" stdDeviation="10.7192"/>
<feComposite in2="SourceAlpha" operator="in" result="effect1_backgroundBlur_1_2087"/>
<feColorMatrix in="SourceAlpha" type="matrix" values="0 0 0 0 0 0 0 0 0 0 0 0 0 0 0 0 0 0 127 0" result="hardAlpha"/>
<feOffset dy="14"/>
<feGaussianBlur stdDeviation="14"/>
<feComposite in2="hardAlpha" operator="out"/>
<feColorMatrix type="matrix" values="0 0 0 0 0.804167 0 0 0 0 0.804167 0 0 0 0 0.804167 0 0 0 0.25 0"/>
<feBlend mode="normal" in2="effect1_backgroundBlur_1_2087" result="effect2_dropShadow_1_2087"/>
<feBlend mode="normal" in="SourceGraphic" in2="effect2_dropShadow_1_2087" result="shape"/>
<feColorMatrix in="SourceAlpha" type="matrix" values="0 0 0 0 0 0 0 0 0 0 0 0 0 0 0 0 0 0 127 0" result="hardAlpha"/>
<feOffset dx="-2.57262" dy="2.57262"/>
<feComposite in2="hardAlpha" operator="arithmetic" k2="-1" k3="1"/>
<feColorMatrix type="matrix" values="0 0 0 0 1 0 0 0 0 1 0 0 0 0 1 0 0 0 1 0"/>
<feBlend mode="normal" in2="shape" result="effect3_innerShadow_1_2087"/>
</filter>
<linearGradient id="paint0_linear_1_2087" x1="431.366" y1="301.634" x2="228.477" y2="278.574" gradientUnits="userSpaceOnUse">
<stop stop-color="#F4F4F4"/>
<stop offset="0.421875" stop-color="#F4F4F4"/>
<stop offset="1" stop-color="white"/>
</linearGradient>
<linearGradient id="paint1_linear_1_2087" x1="416.072" y1="306.536" x2="245.772" y2="287.18" gradientUnits="userSpaceOnUse">
<stop stop-color="#F4F4F4"/>
<stop offset="0.421875" stop-color="#F4F4F4"/>
<stop offset="1" stop-color="white"/>
</linearGradient>
<linearGradient id="paint2_linear_1_2087" x1="571.974" y1="129.713" x2="456.316" y2="117.715" gradientUnits="userSpaceOnUse">
<stop stop-color="#F4F4F4"/>
<stop offset="0.421875" stop-color="#F4F4F4"/>
<stop offset="1" stop-color="white"/>
</linearGradient>
<linearGradient id="paint3_linear_1_2087" x1="640.503" y1="301.906" x2="524.969" y2="288.775" gradientUnits="userSpaceOnUse">
<stop stop-color="#F4F4F4"/>
<stop offset="0.421875" stop-color="#F4F4F4"/>
<stop offset="1" stop-color="white"/>
</linearGradient>
<linearGradient id="paint4_linear_1_2087" x1="571.503" y1="467.906" x2="455.969" y2="454.775" gradientUnits="userSpaceOnUse">
<stop stop-color="#F4F4F4"/>
<stop offset="0.421875" stop-color="#F4F4F4"/>
<stop offset="1" stop-color="white"/>
</linearGradient>
<linearGradient id="paint5_linear_1_2087" x1="398.503" y1="548.906" x2="282.969" y2="535.775" gradientUnits="userSpaceOnUse">
<stop stop-color="#F4F4F4"/>
<stop offset="0.421875" stop-color="#F4F4F4"/>
<stop offset="1" stop-color="white"/>
</linearGradient>
<linearGradient id="paint6_linear_1_2087" x1="228.503" y1="467.906" x2="112.969" y2="454.775" gradientUnits="userSpaceOnUse">
<stop stop-color="#F4F4F4"/>
<stop offset="0.421875" stop-color="#F4F4F4"/>
<stop offset="1" stop-color="white"/>
</linearGradient>
<linearGradient id="paint7_linear_1_2087" x1="149.503" y1="300.906" x2="33.969" y2="287.775" gradientUnits="userSpaceOnUse">
<stop stop-color="#F4F4F4"/>
<stop offset="0.421875" stop-color="#F4F4F4"/>
<stop offset="1" stop-color="white"/>
</linearGradient>
<linearGradient id="paint8_linear_1_2087" x1="228.503" y1="130.906" x2="112.969" y2="117.775" gradientUnits="userSpaceOnUse">
<stop stop-color="#F4F4F4"/>
<stop offset="0.421875" stop-color="#F4F4F4"/>
<stop offset="1" stop-color="white"/>
</linearGradient>
<linearGradient id="paint9_linear_1_2087" x1="431.366" y1="301.634" x2="228.477" y2="278.574" gradientUnits="userSpaceOnUse">
<stop stop-color="#F4F4F4"/>
<stop offset="0.421875" stop-color="#F4F4F4"/>
<stop offset="1" stop-color="white"/>
</linearGradient>
<linearGradient id="paint10_linear_1_2087" x1="416.072" y1="306.536" x2="245.772" y2="287.18" gradientUnits="userSpaceOnUse">
<stop stop-color="#F4F4F4"/>
<stop offset="0.421875" stop-color="#F4F4F4"/>
<stop offset="1" stop-color="white"/>
</linearGradient>
</defs>
</svg>
