<svg width="57" height="56" viewBox="0 0 57 56" fill="none" xmlns="http://www.w3.org/2000/svg">
<ellipse cx="28.8823" cy="28.0001" rx="28" ry="27.5" fill="#DFF3F2"/>
<path d="M31.6096 36.6169V31.3188C31.6096 31.0846 31.5138 30.86 31.3433 30.6945C31.1728 30.5289 30.9416 30.4358 30.7005 30.4358H27.0641C26.823 30.4358 26.5918 30.5289 26.4213 30.6945C26.2508 30.86 26.1551 31.0846 26.1551 31.3188V36.6169C26.1551 36.8511 26.0593 37.0757 25.8888 37.2413C25.7183 37.4069 25.4871 37.4999 25.246 37.4999H19.7914C19.5503 37.4999 19.3191 37.4069 19.1486 37.2413C18.9781 37.0757 18.8823 36.8511 18.8823 36.6169V26.4071C18.8844 26.2849 18.9115 26.1643 18.9623 26.0525C19.013 25.9406 19.0863 25.8398 19.1778 25.7558L28.2687 17.7314C28.4363 17.5825 28.6552 17.4999 28.8823 17.4999C29.1095 17.4999 29.3284 17.5825 29.496 17.7314L38.5869 25.7558C38.6783 25.8398 38.7516 25.9406 38.8024 26.0525C38.8531 26.1643 38.8803 26.2849 38.8823 26.4071V36.6169C38.8823 36.8511 38.7865 37.0757 38.6161 37.2413C38.4456 37.4069 38.2143 37.4999 37.9732 37.4999H32.5187C32.2776 37.4999 32.0464 37.4069 31.8759 37.2413C31.7054 37.0757 31.6096 36.8511 31.6096 36.6169Z" stroke="#38CEC5" stroke-width="2" stroke-linecap="round" stroke-linejoin="round"/>
</svg>
