<svg width="57" height="56" viewBox="0 0 57 56" fill="none" xmlns="http://www.w3.org/2000/svg">
<ellipse cx="28.8823" cy="28" rx="28" ry="27.5" fill="#D5F2FC"/>
<path d="M19.8823 38.5C19.8809 38.157 19.9497 37.8171 20.0848 37.5C20.22 37.1828 20.4188 36.8947 20.6698 36.6522C20.9209 36.4096 21.2191 36.2175 21.5473 36.087C21.8756 35.9564 22.2274 35.8899 22.5823 35.8913H37.8823V18.5H22.5823C22.2274 18.4986 21.8756 18.5651 21.5473 18.6957C21.2191 18.8263 20.9209 19.0184 20.6698 19.2609C20.4188 19.5034 20.22 19.7916 20.0848 20.1087C19.9497 20.4259 19.8809 20.7657 19.8823 21.1087V38.5Z" stroke="#23C0F7" stroke-width="2" stroke-linecap="round" stroke-linejoin="round"/>
<path d="M19.8823 38.5V39.5H35.8823" stroke="#23C0F7" stroke-width="2" stroke-linecap="round" stroke-linejoin="round"/>
</svg>
