<svg width="57" height="56" viewBox="0 0 57 56" fill="none" xmlns="http://www.w3.org/2000/svg">
<ellipse cx="28.8823" cy="28" rx="28" ry="27.5" fill="#FFE4E4"/>
<path d="M39.8823 18.5H17.8823C17.33 18.5 16.8823 18.9477 16.8823 19.5V37.5C16.8823 38.0523 17.33 38.5 17.8823 38.5H39.8823C40.4346 38.5 40.8823 38.0523 40.8823 37.5V19.5C40.8823 18.9477 40.4346 18.5 39.8823 18.5Z" stroke="#FF4F4F" stroke-width="2" stroke-linecap="round" stroke-linejoin="round"/>
<path d="M21.3823 24.25C22.0727 24.25 22.6323 23.6904 22.6323 23C22.6323 22.3096 22.0727 21.75 21.3823 21.75C20.692 21.75 20.1323 22.3096 20.1323 23C20.1323 23.6904 20.692 24.25 21.3823 24.25Z" fill="#FF4F4F"/>
<path d="M24.8823 24.25C25.5727 24.25 26.1323 23.6904 26.1323 23C26.1323 22.3096 25.5727 21.75 24.8823 21.75C24.192 21.75 23.6323 22.3096 23.6323 23C23.6323 23.6904 24.192 24.25 24.8823 24.25Z" fill="#FF4F4F"/>
</svg>
