<svg width="57" height="56" viewBox="0 0 57 56" fill="none" xmlns="http://www.w3.org/2000/svg">
<ellipse cx="28.8823" cy="28" rx="28" ry="27.5" fill="#F4E6FF"/>
<path d="M33.8823 20.5H38.5417C38.716 20.4987 38.8866 20.5577 39.0311 20.6693C39.1755 20.7808 39.2871 20.9397 39.3511 21.125L40.8823 25.5" stroke="#A76FD2" stroke-width="1.5" stroke-linecap="round" stroke-linejoin="round"/>
<path d="M16.8823 27.5H33.8823" stroke="#A76FD2" stroke-width="1.5" stroke-linecap="round" stroke-linejoin="round"/>
<path d="M35.3823 35.5C36.763 35.5 37.8823 34.3807 37.8823 33C37.8823 31.6193 36.763 30.5 35.3823 30.5C34.0016 30.5 32.8823 31.6193 32.8823 33C32.8823 34.3807 34.0016 35.5 35.3823 35.5Z" stroke="#A76FD2" stroke-width="1.5" stroke-linecap="round" stroke-linejoin="round"/>
<path d="M22.3823 35.5C23.763 35.5 24.8823 34.3807 24.8823 33C24.8823 31.6193 23.763 30.5 22.3823 30.5C21.0016 30.5 19.8823 31.6193 19.8823 33C19.8823 34.3807 21.0016 35.5 22.3823 35.5Z" stroke="#A76FD2" stroke-width="1.5" stroke-linecap="round" stroke-linejoin="round"/>
<path d="M32.8823 32.5H24.8823" stroke="#A76FD2" stroke-width="1.5" stroke-linecap="round" stroke-linejoin="round"/>
<path d="M19.8573 32.5H17.7323C17.5069 32.5 17.2907 32.4144 17.1313 32.262C16.9719 32.1097 16.8823 31.903 16.8823 31.6875V20.3125C16.8823 20.097 16.9719 19.8903 17.1313 19.738C17.2907 19.5856 17.5069 19.5 17.7323 19.5H33.8823V30.3875" stroke="#A76FD2" stroke-width="1.5" stroke-linecap="round" stroke-linejoin="round"/>
<path d="M33.8823 25.5H40.8823V31.7222C40.8823 31.9285 40.7901 32.1263 40.626 32.2722C40.4619 32.4181 40.2394 32.5 40.0073 32.5H37.8198" stroke="#A76FD2" stroke-width="1.5" stroke-linecap="round" stroke-linejoin="round"/>
</svg>
