<svg width="57" height="56" viewBox="0 0 57 56" fill="none" xmlns="http://www.w3.org/2000/svg">
<ellipse cx="28.8823" cy="28" rx="28" ry="27.5" fill="#FFE7DF"/>
<path d="M18.7395 26.5H23.8823V36.5H18.7395C18.5121 36.5 18.2941 36.419 18.1334 36.2747C17.9726 36.1304 17.8823 35.9348 17.8823 35.7308V27.2692C17.8823 27.0652 17.9726 26.8696 18.1334 26.7253C18.2941 26.581 18.5121 26.5 18.7395 26.5V26.5Z" stroke="#BC7964" stroke-width="2" stroke-linecap="round" stroke-linejoin="round"/>
<path d="M23.8823 25.7609L27.8866 17.5C28.7362 17.5 29.551 17.8481 30.1518 18.4678C30.7525 19.0875 31.09 19.928 31.09 20.8043V23.2826H37.2867C37.5138 23.282 37.7384 23.3316 37.9454 23.428C38.1524 23.5243 38.337 23.6653 38.4869 23.8413C38.6367 24.0174 38.7482 24.2245 38.814 24.4487C38.8798 24.6729 38.8984 24.9091 38.8684 25.1413L37.6671 35.0543C37.6185 35.4523 37.4312 35.8184 37.1402 36.0844C36.8491 36.3504 36.4742 36.4981 36.0854 36.5H23.8823" stroke="#BC7964" stroke-width="2" stroke-linecap="round" stroke-linejoin="round"/>
</svg>
