<svg width="24" height="23" viewBox="0 0 24 23" fill="none" xmlns="http://www.w3.org/2000/svg">
<path d="M16.6235 2.48344C17.8522 2.48698 19.0297 2.95826 19.8986 3.79438C20.7675 4.6305 21.2572 5.7635 21.2609 6.94594V15.87C21.2572 17.0524 20.7675 18.1854 19.8986 19.0216C19.0297 19.8577 17.8522 20.329 16.6235 20.3325H7.34955C6.12075 20.329 4.94333 19.8577 4.07443 19.0216C3.20554 18.1854 2.71577 17.0524 2.7121 15.87V6.94594C2.71577 5.7635 3.20554 4.6305 4.07443 3.79438C4.94333 2.95826 6.12075 2.48698 7.34955 2.48344H16.6235ZM16.6235 0.69873H7.34955C3.7788 0.69873 0.857422 3.50991 0.857422 6.94594V15.87C0.857422 19.306 3.7788 22.1172 7.34955 22.1172H16.6235C20.1942 22.1172 23.1156 19.306 23.1156 15.87V6.94594C23.1156 3.50991 20.1942 0.69873 16.6235 0.69873Z" fill="white"/>
<path d="M18.0145 6.94635C17.7394 6.94635 17.4704 6.86784 17.2416 6.72075C17.0129 6.57366 16.8346 6.36459 16.7293 6.11998C16.624 5.87537 16.5964 5.60621 16.6501 5.34654C16.7038 5.08687 16.8363 4.84834 17.0308 4.66113C17.2254 4.47391 17.4732 4.34642 17.7431 4.29477C18.013 4.24311 18.2927 4.26962 18.5469 4.37094C18.8011 4.47226 19.0183 4.64384 19.1712 4.86398C19.324 5.08412 19.4056 5.34294 19.4056 5.6077C19.406 5.7836 19.3703 5.95784 19.3005 6.12043C19.2308 6.28301 19.1283 6.43073 18.9991 6.55511C18.8698 6.67949 18.7163 6.77808 18.5473 6.84522C18.3784 6.91236 18.1973 6.94673 18.0145 6.94635ZM11.9864 7.83847C12.7202 7.83847 13.4374 8.04784 14.0475 8.44011C14.6576 8.83237 15.1331 9.38992 15.4139 10.0422C15.6947 10.6945 15.7681 11.4123 15.625 12.1048C15.4818 12.7973 15.1285 13.4334 14.6097 13.9327C14.0908 14.4319 13.4298 14.7719 12.7102 14.9097C11.9905 15.0474 11.2446 14.9767 10.5667 14.7065C9.88883 14.4363 9.30943 13.9788 8.90178 13.3917C8.49414 12.8046 8.27656 12.1144 8.27656 11.4084C8.27761 10.4619 8.66881 9.55446 9.36431 8.88519C10.0598 8.21592 11.0028 7.83948 11.9864 7.83847ZM11.9864 6.05376C10.8859 6.05376 9.81001 6.3678 8.89492 6.95617C7.97984 7.54455 7.26662 8.38082 6.84545 9.35925C6.42429 10.3377 6.31409 11.4143 6.5288 12.453C6.74351 13.4917 7.27348 14.4458 8.05169 15.1947C8.82991 15.9435 9.82141 16.4535 10.9008 16.6601C11.9802 16.8667 13.0991 16.7607 14.1159 16.3554C15.1327 15.9501 16.0017 15.2638 16.6132 14.3832C17.2246 13.5027 17.551 12.4674 17.551 11.4084C17.551 9.98824 16.9647 8.62627 15.9211 7.62209C14.8776 6.6179 13.4622 6.05376 11.9864 6.05376Z" fill="white"/>
</svg>
