<svg width="23" height="23" viewBox="0 0 23 23" fill="none" xmlns="http://www.w3.org/2000/svg">
<path d="M20.5968 0.533203H2.44488C1.45302 0.533203 0.586426 1.24687 0.586426 2.22708V20.4193C0.586426 21.4049 1.45302 22.2831 2.44488 22.2831H20.5915C21.5887 22.2831 22.3364 21.3991 22.3364 20.4193V2.22708C22.3422 1.24687 21.5887 0.533203 20.5968 0.533203ZM7.32842 18.6628H4.21255V8.9749H7.32842V18.6628ZM5.87826 7.50192H5.85593C4.85873 7.50192 4.21303 6.75961 4.21303 5.83038C4.21303 4.88416 4.87573 4.15932 5.89525 4.15932C6.91478 4.15932 7.53864 4.87882 7.56097 5.83038C7.56048 6.75961 6.91478 7.50192 5.87826 7.50192ZM18.7161 18.6628H15.6002V13.3657C15.6002 12.0966 15.1467 11.2295 14.0194 11.2295C13.1582 11.2295 12.6484 11.8121 12.4217 12.3796C12.3367 12.5835 12.3139 12.8612 12.3139 13.1448V18.6628H9.19804V8.9749H12.3139V10.3231C12.7674 9.6774 13.4757 8.74817 15.1239 8.74817C17.1693 8.74817 18.7165 10.0964 18.7165 13.003L18.7161 18.6628Z" fill="white"/>
</svg>
