<svg width="22" height="18" viewBox="0 0 22 18" fill="none" xmlns="http://www.w3.org/2000/svg">
<path d="M21.5868 2.85951C20.7814 3.20922 19.9292 3.43962 19.0572 3.54342C19.9736 3.00719 20.6628 2.1553 20.9954 1.14753C20.129 1.65379 19.1827 2.00901 18.197 2.19796C17.782 1.76327 17.2828 1.41747 16.7298 1.18156C16.1769 0.945658 15.5817 0.824581 14.9804 0.825691C12.5461 0.825691 10.5762 2.76565 10.5762 5.15706C10.5744 5.4897 10.6126 5.82135 10.6898 6.14492C8.94421 6.06315 7.23496 5.61818 5.67135 4.83847C4.10775 4.05877 2.72423 2.9615 1.6093 1.61687C1.21816 2.27579 1.0113 3.0276 1.01035 3.79373C1.01035 5.29563 1.79449 6.6232 2.97853 7.40097C2.27702 7.38434 1.58989 7.1988 0.97546 6.86011V6.91375C0.97546 9.01462 2.49633 10.7624 4.50924 11.1602C4.13071 11.261 3.74065 11.3121 3.34891 11.3122C3.07094 11.3127 2.7936 11.2857 2.52093 11.2317C3.08052 12.9526 4.70919 14.2042 6.63845 14.24C5.07079 15.4473 3.1461 16.0998 1.16691 16.095C0.815598 16.0945 0.464612 16.0736 0.115723 16.0324C2.12916 17.3172 4.46963 17.9968 6.85853 17.9903C14.971 17.9903 19.403 11.3882 19.403 5.66217C19.403 5.47443 19.3981 5.28669 19.3891 5.10342C20.2494 4.49196 20.9936 3.7321 21.5868 2.85951Z" fill="white"/>
</svg>
