<svg width="27" height="20" viewBox="0 0 27 20" fill="none" xmlns="http://www.w3.org/2000/svg">
<path d="M26.1694 5.10343C26.1694 2.87693 24.4883 1.08583 22.4111 1.08583C19.5974 0.957681 16.7279 0.908203 13.7955 0.908203H12.8813C9.95592 0.908203 7.08134 0.957681 4.2677 1.08632C2.19556 1.08632 0.514491 2.88732 0.514491 5.11382C0.387522 6.87473 0.333687 8.63614 0.336735 10.3976C0.331656 12.159 0.389215 13.922 0.509413 15.6867C0.509413 17.9132 2.19048 19.7192 4.26262 19.7192C7.21846 19.8528 10.2505 19.9121 13.3333 19.9072C16.4212 19.9171 19.4447 19.8544 22.404 19.7192C24.4812 19.7192 26.1623 17.9132 26.1623 15.6867C26.2841 13.9204 26.34 12.159 26.3349 10.3926C26.3464 8.6312 26.2913 6.86814 26.1694 5.10343ZM10.8498 15.2513V5.52894L18.214 10.3877L10.8498 15.2513Z" fill="white"/>
</svg>
