<svg width="160" height="35" viewBox="0 0 160 35" fill="none" xmlns="http://www.w3.org/2000/svg">
<path d="M63.4072 16.5284C63.4688 15.9308 63.4995 15.2452 63.4995 14.4718C63.4995 13.2413 63.4336 11.712 63.3018 9.88391C64.9453 9.93665 67.7271 9.96301 71.647 9.96301C75.5669 9.96301 78.3398 9.93665 79.9658 9.88391C79.834 11.712 79.7681 13.2413 79.7681 14.4718C79.7681 15.2452 79.7988 15.9308 79.8604 16.5284H79.2407C78.9419 15.0255 78.5771 13.839 78.1465 12.9689C77.7158 12.09 77.1973 11.4615 76.5908 11.0836C75.9932 10.6969 75.2637 10.5035 74.4023 10.5035H73.7827V25.9283C73.7827 26.6754 73.8574 27.2203 74.0068 27.5631C74.165 27.9059 74.4375 28.1388 74.8242 28.2618C75.2197 28.3849 75.835 28.4508 76.6699 28.4596V29.0001C74.4023 28.9474 72.6929 28.921 71.5415 28.921C70.4077 28.921 68.7598 28.9474 66.5977 29.0001V28.4596C67.4414 28.4508 68.0566 28.3849 68.4434 28.2618C68.8389 28.1388 69.1113 27.9059 69.2607 27.5631C69.4102 27.2203 69.4849 26.6754 69.4849 25.9283V10.5035H68.8916C68.0215 10.5035 67.2832 10.6925 66.6768 11.0704C66.0791 11.4484 65.5649 12.0768 65.1343 12.9557C64.7036 13.8258 64.3345 15.0167 64.0269 16.5284H63.4072ZM88.0737 17.6095C88.0737 16.8624 87.8936 16.2736 87.5332 15.8429C87.1816 15.4122 86.6279 15.1969 85.8721 15.1969C85.5205 15.1969 85.1689 15.254 84.8174 15.3683C84.4658 15.4738 84.1758 15.6364 83.9473 15.8561C84.4482 16.0231 84.8394 16.2867 85.1206 16.6471C85.4019 16.9987 85.5425 17.4425 85.5425 17.9786C85.5425 18.3478 85.4502 18.6818 85.2656 18.9806C85.0898 19.2706 84.835 19.5035 84.501 19.6793C84.167 19.8463 83.7847 19.9298 83.354 19.9298C82.7739 19.9298 82.3081 19.7321 81.9565 19.3365C81.6138 18.941 81.4424 18.4445 81.4424 17.8468C81.4424 16.9152 81.9434 16.1593 82.9453 15.5792C84.0439 14.9728 85.415 14.6696 87.0586 14.6696C88.9043 14.6696 90.2183 15.0739 91.0005 15.8824C91.3784 16.2604 91.6333 16.7306 91.7651 17.2931C91.897 17.8556 91.9629 18.6422 91.9629 19.653V26.9962C91.9629 27.4357 92.0024 27.7477 92.0815 27.9323C92.1694 28.108 92.3188 28.1959 92.5298 28.1959C92.8198 28.1959 93.1538 28.0421 93.5317 27.7345L93.8086 28.1959C93.3955 28.5387 92.9473 28.7892 92.4639 28.9474C91.9805 29.1056 91.4004 29.1847 90.7236 29.1847C89.8096 29.1847 89.1504 28.9825 88.7461 28.5782C88.3418 28.174 88.1396 27.6466 88.1396 26.9962C87.7002 27.7257 87.1245 28.275 86.4126 28.6442C85.7007 29.0045 84.9404 29.1847 84.1318 29.1847C83.1035 29.1847 82.2773 28.9166 81.6533 28.3805C81.0381 27.8356 80.7305 27.0797 80.7305 26.1129C80.7305 25.1725 81.0381 24.3947 81.6533 23.7794C82.2686 23.1642 83.2222 22.6193 84.5142 22.1447C84.6548 22.0919 85.1118 21.9205 85.8853 21.6305C86.6587 21.3317 87.2168 21.0284 87.5596 20.7208C87.9023 20.4132 88.0737 20.0748 88.0737 19.7057V17.6095ZM88.0737 20.8131C87.9595 21.0065 87.7705 21.2086 87.5068 21.4196C87.252 21.6217 86.8828 21.8722 86.3994 22.171C85.8281 22.5665 85.3799 23.0148 85.0547 23.5157C84.7295 24.0079 84.5669 24.6232 84.5669 25.3615C84.5669 26.0646 84.7207 26.5919 85.0283 26.9435C85.3359 27.2863 85.7402 27.4576 86.2412 27.4576C86.9531 27.4576 87.564 27.0885 88.0737 26.3502V20.8131ZM100.216 17.2535C100.559 16.4889 101.051 15.8693 101.692 15.3947C102.343 14.9113 103.077 14.6696 103.894 14.6696C104.439 14.6696 104.896 14.7882 105.265 15.0255C105.634 15.2628 105.907 15.5704 106.083 15.9484C106.258 16.3175 106.346 16.7174 106.346 17.1481C106.346 17.816 106.153 18.361 105.766 18.7828C105.379 19.2047 104.87 19.4156 104.237 19.4156C103.622 19.4156 103.134 19.2618 102.773 18.9542C102.422 18.6378 102.246 18.2159 102.246 17.6886C102.246 16.8273 102.642 16.1241 103.433 15.5792C103.318 15.5529 103.208 15.5397 103.103 15.5397C102.98 15.5397 102.839 15.5616 102.681 15.6056C102.224 15.6759 101.807 15.8956 101.429 16.2648C101.051 16.6251 100.752 17.0602 100.532 17.5699C100.321 18.0797 100.216 18.5763 100.216 19.0597V26.2184C100.216 27.0533 100.418 27.6334 100.822 27.9586C101.227 28.275 101.873 28.4332 102.76 28.4332V29.0001C100.51 28.9298 99.0776 28.8947 98.4624 28.8947C97.8911 28.8947 96.6035 28.9298 94.5996 29.0001V28.4332C95.0303 28.4332 95.3687 28.3761 95.6147 28.2618C95.8696 28.1476 96.0498 27.9498 96.1553 27.6686C96.2695 27.3873 96.3267 26.9962 96.3267 26.4952V17.9786C96.3267 17.1437 96.1992 16.5416 95.9443 16.1725C95.6895 15.7946 95.2412 15.6056 94.5996 15.6056V15.0387C95.1709 15.0914 95.729 15.1178 96.2739 15.1178C97.8647 15.1178 99.1787 14.9948 100.216 14.7487V17.2535ZM117.249 25.546C118.33 25.546 119.205 25.7745 119.873 26.2316C120.549 26.6798 120.888 27.4137 120.888 28.4332C120.888 29.3561 120.598 30.2482 120.018 31.1095C119.438 31.9796 118.559 32.6915 117.381 33.2452C116.203 33.799 114.766 34.0758 113.07 34.0758C111.751 34.0758 110.644 33.9703 109.748 33.7594C108.86 33.5573 108.196 33.2804 107.757 32.9288C107.317 32.5773 107.098 32.1774 107.098 31.7291C107.098 31.2457 107.278 30.8854 107.638 30.6481C108.007 30.4108 108.605 30.1603 109.431 29.8966C110.257 29.6329 110.842 29.3781 111.185 29.132H110.552C109.805 29.132 109.115 28.9518 108.482 28.5914C107.849 28.2311 107.533 27.5763 107.533 26.6271C107.533 26.1085 107.638 25.6427 107.849 25.2296C108.069 24.8077 108.425 24.4078 108.917 24.0299C109.418 23.6432 110.09 23.2477 110.934 22.8434C110.011 22.527 109.291 22.048 108.772 21.4064C108.253 20.756 107.994 19.9386 107.994 18.9542C107.994 17.5304 108.521 16.4625 109.576 15.7506C110.64 15.0299 112.046 14.6696 113.795 14.6696C114.516 14.6696 115.184 14.7311 115.799 14.8541C115.772 14.3971 115.808 13.9445 115.904 13.4962C115.992 12.7491 116.247 12.1515 116.669 11.7032C117.091 11.2462 117.688 11.0177 118.462 11.0177C119.033 11.0177 119.503 11.1715 119.873 11.4791C120.25 11.778 120.439 12.1735 120.439 12.6656C120.439 13.1227 120.259 13.5006 119.899 13.7994C119.547 14.0895 119.104 14.2345 118.567 14.2345C118.022 14.2345 117.596 14.1071 117.289 13.8522C116.981 13.5973 116.744 13.2194 116.577 12.7184C116.383 13.0436 116.247 13.505 116.168 14.1027C116.159 14.1906 116.155 14.3224 116.155 14.4982C116.155 14.6915 116.159 14.8365 116.168 14.9332C117.24 15.2057 118.08 15.6803 118.686 16.3571C119.292 17.025 119.596 17.8907 119.596 18.9542C119.596 19.9122 119.345 20.712 118.844 21.3536C118.352 21.9952 117.671 22.4742 116.801 22.7906C115.931 23.0983 114.929 23.2521 113.795 23.2521C112.942 23.2521 112.165 23.1642 111.461 22.9884C110.943 23.2872 110.556 23.5597 110.301 23.8058C110.055 24.0519 109.932 24.3331 109.932 24.6495C109.932 25.2472 110.292 25.546 111.013 25.546H117.249ZM113.795 15.1442C113.206 15.1442 112.758 15.4342 112.45 16.0143C112.143 16.5944 111.989 17.5743 111.989 18.9542C111.989 20.3341 112.143 21.3141 112.45 21.8942C112.758 22.4742 113.206 22.7643 113.795 22.7643C114.393 22.7643 114.841 22.4742 115.14 21.8942C115.447 21.3141 115.601 20.3341 115.601 18.9542C115.601 17.5743 115.447 16.5944 115.14 16.0143C114.841 15.4342 114.393 15.1442 113.795 15.1442ZM111.699 29.132C111.4 29.4132 111.167 29.7604 111 30.1735C110.842 30.5865 110.763 30.9601 110.763 31.2941C110.763 32.0411 111.044 32.6124 111.606 33.0079C112.178 33.4122 112.907 33.6144 113.795 33.6144C114.524 33.6144 115.201 33.4781 115.825 33.2057C116.458 32.942 116.959 32.5553 117.328 32.0455C117.706 31.5358 117.895 30.9425 117.895 30.2657C117.895 29.879 117.781 29.5934 117.552 29.4088C117.324 29.2242 116.915 29.132 116.326 29.132H111.699ZM126.333 20.6549C126.306 20.9186 126.293 21.3405 126.293 21.9205C126.293 23.1158 126.46 24.109 126.794 24.9C127.128 25.6823 127.559 26.2579 128.086 26.6271C128.622 26.9874 129.193 27.1676 129.8 27.1676C131.285 27.1676 132.476 26.4469 133.373 25.0055L133.847 25.1637C133.619 25.902 133.263 26.5919 132.779 27.2335C132.305 27.8663 131.698 28.3849 130.96 28.7892C130.23 29.1847 129.396 29.3824 128.455 29.3824C127.216 29.3824 126.126 29.1188 125.186 28.5914C124.254 28.0641 123.524 27.2643 122.997 26.192C122.479 25.111 122.219 23.7706 122.219 22.171C122.219 20.5363 122.5 19.1608 123.063 18.0446C123.625 16.9196 124.403 16.0758 125.396 15.5133C126.39 14.9508 127.537 14.6696 128.837 14.6696C132.221 14.6696 133.913 16.6647 133.913 20.6549H126.333ZM130.512 20.1407C130.538 18.7345 130.393 17.5656 130.077 16.6339C129.769 15.7023 129.299 15.2365 128.666 15.2365C128.024 15.2365 127.488 15.6364 127.058 16.4362C126.636 17.2272 126.376 18.462 126.28 20.1407H130.512ZM144.157 15.0651V15.6056H140.966V26.4952C140.966 27.0314 141.063 27.4137 141.256 27.6422C141.45 27.8619 141.749 27.9718 142.153 27.9718C142.917 27.9718 143.528 27.4313 143.985 26.3502L144.447 26.6007C143.77 28.4552 142.54 29.3824 140.755 29.3824C139.569 29.3824 138.668 29.0748 138.053 28.4596C137.675 28.0905 137.416 27.6246 137.275 27.0621C137.143 26.4908 137.077 25.7042 137.077 24.7023V15.6056H134.81V15.0651H137.077V11.4791C138.562 11.4791 139.859 11.1891 140.966 10.609V15.0651H144.157Z" fill="#263238"/>
<rect x="30.6426" y="4.00012" width="28" height="28" rx="5" fill="#FFB6D3"/>
<circle cx="44.6426" cy="18.0001" r="5" fill="#FF5196"/>
<path d="M44.6426 11.6001V10.0001M44.6426 26.0001V24.4001M51.0426 18.0001H52.6426M36.6426 18.0001H38.2426M44.6426 12.2401C43.5034 12.2401 42.3897 12.5779 41.4425 13.2109C40.4953 13.8438 39.757 14.7434 39.321 15.7959C38.8851 16.8484 38.771 18.0065 38.9933 19.1238C39.2155 20.2412 39.7641 21.2675 40.5696 22.0731C41.3752 22.8786 42.4015 23.4272 43.5189 23.6494C44.6362 23.8717 45.7943 23.7576 46.8468 23.3217C47.8993 22.8857 48.7989 22.1474 49.4318 21.2002C50.0648 20.253 50.4026 19.1393 50.4026 18.0001C50.4026 16.4725 49.7957 15.0074 48.7155 13.9272C47.6353 12.847 46.1702 12.2401 44.6426 12.2401Z" stroke="white" stroke-width="2" stroke-linecap="square" stroke-linejoin="round"/>
</svg>
