<svg width="160" height="37" viewBox="0 0 160 37" fill="none" xmlns="http://www.w3.org/2000/svg">
<path d="M34.6426 22.7436V0.00012207H48.1728V22.7325H34.6426V22.7436ZM46.5335 17.4524L46.8815 14.9401L45.6239 14.8179L45.2422 16.7521C44.4562 17.1411 43.4905 17.3301 42.334 17.3301C40.762 17.3301 39.5157 16.841 38.6062 15.8517C37.6855 14.8623 37.2363 13.5618 37.2363 11.9388C37.2363 10.3603 37.6855 9.05974 38.5725 8.03706C39.4596 7.01438 40.6273 6.50304 42.0758 6.50304C42.8169 6.50304 43.4456 6.59196 43.9509 6.7587C44.4562 6.92545 44.9166 7.14777 45.3545 7.43679L45.725 9.34875L47.005 9.22648L46.6345 6.71424C46.0955 6.25848 45.4555 5.89165 44.7144 5.60263C43.9734 5.32473 43.0527 5.18022 41.9635 5.18022C40.6722 5.18022 39.5606 5.49147 38.6287 6.12509C37.6967 6.75871 36.9669 7.59241 36.4504 8.62621C35.9339 9.67112 35.6756 10.7938 35.6756 11.9944C35.6756 13.8952 36.2707 15.4848 37.4609 16.7521C38.6511 18.0193 40.2006 18.6529 42.1207 18.6529C44.007 18.6529 45.478 18.2527 46.5335 17.4524Z" fill="#263238"/>
<path d="M52.7656 22.7436V0.00012207H58.5819V22.7325H52.7656V22.7436ZM53.3832 18.4528H57.9756V17.3079H56.3924V4.6133H53.3607V5.75826H54.9664V17.3079H53.3832V18.4528Z" fill="#263238"/>
<path d="M63.1738 22.7436V0.00012207H73.3917V22.7325H63.1738V22.7436ZM65.0265 10.1825L64.7009 12.2501L65.8799 12.3946L66.2279 10.8494C66.7332 10.6049 67.3059 10.4826 67.9796 10.4826C68.788 10.4826 69.3382 10.6827 69.6189 11.0829C69.8996 11.483 70.0344 12.0055 70.0344 12.6502V13.4506C69.7874 13.4284 69.5291 13.4061 69.2484 13.395C68.9677 13.3839 68.6982 13.3728 68.4287 13.3728C67.4182 13.3728 66.4525 13.5506 65.5542 13.9064C64.656 14.2621 64.2069 15.0068 64.2069 16.1296C64.2069 17.0856 64.51 17.7414 65.1276 18.0971C65.7451 18.4639 66.3515 18.6418 66.9466 18.6418C67.6764 18.6418 68.3052 18.4528 68.8217 18.0749C69.3382 17.6969 69.7424 17.2745 70.0344 16.7854V16.8299C70.0568 18.0415 70.607 18.6418 71.685 18.6418C72.1004 18.6418 72.4934 18.5418 72.8639 18.3417L72.8415 17.419C72.6618 17.4968 72.4597 17.5413 72.2351 17.5413C71.7186 17.5413 71.4604 17.2189 71.4604 16.5742V12.3167C71.4604 10.3159 70.3824 9.31541 68.2266 9.31541C67.6315 9.31541 67.0701 9.3821 66.5423 9.5155C66.0034 9.66001 65.4981 9.88233 65.0265 10.1825ZM70.0231 15.0958C69.967 15.8294 69.6638 16.4186 69.1136 16.841C68.5635 17.2745 67.9796 17.4857 67.3508 17.4857C66.9578 17.4857 66.576 17.3746 66.2167 17.1634C65.8462 16.9522 65.6665 16.552 65.6665 15.9739C65.6665 15.2736 65.9472 14.829 66.4862 14.6178C67.0364 14.4066 67.6427 14.3065 68.3276 14.3065C68.6308 14.3065 68.9227 14.3176 69.2035 14.351C69.4842 14.3732 69.7649 14.3955 70.0119 14.4066V15.0958H70.0231Z" fill="#263238"/>
<path d="M77.9961 22.7436V0.00012207H87.2819V22.7325H77.9961V22.7436ZM86.3051 15.8628C86.3051 15.1514 86.1142 14.6289 85.7324 14.2843C85.3507 13.9397 84.8903 13.7063 84.3289 13.5729C83.7675 13.4395 83.2173 13.3283 82.6671 13.2394C82.1169 13.1505 81.6453 13.0059 81.2636 12.817C80.8818 12.628 80.6909 12.2945 80.6909 11.8165C80.6909 11.3608 80.8705 11.0273 81.2411 10.805C81.6116 10.5826 82.072 10.4826 82.6446 10.4826C83.3071 10.4826 83.9247 10.6271 84.4973 10.9272L84.7219 12.3723L85.9009 12.2278L85.6763 10.138C85.2945 9.90456 84.8342 9.71558 84.284 9.55996C83.7338 9.40433 83.1499 9.31541 82.5211 9.31541C81.6902 9.31541 80.9267 9.51549 80.2193 9.90456C79.5119 10.2936 79.1639 10.9606 79.1639 11.9166C79.1639 12.6169 79.3547 13.1282 79.7365 13.4506C80.1182 13.7841 80.5899 14.0064 81.1625 14.1398C81.7352 14.2732 82.2965 14.3843 82.858 14.4844C83.4194 14.5733 83.891 14.7289 84.2728 14.929C84.6545 15.1291 84.8454 15.4737 84.8454 15.9739C84.8454 16.4853 84.5983 16.8632 84.1043 17.1078C83.6102 17.3523 83.0489 17.4746 82.4088 17.4746C81.6902 17.4746 81.0165 17.3301 80.3989 17.03L80.4551 15.8406L79.321 15.7183L79.0403 17.7525C79.4333 18.0082 79.9498 18.2194 80.5786 18.3861C81.2074 18.5529 81.8362 18.6418 82.4762 18.6418C83.5654 18.6418 84.4749 18.3973 85.2047 17.897C85.9346 17.419 86.3051 16.7298 86.3051 15.8628Z" fill="#263238"/>
<path d="M91.873 22.7436V0.00012207H101.159V22.7325H91.873V22.7436ZM100.182 15.8628C100.182 15.1514 99.9911 14.6289 99.6093 14.2843C99.2276 13.9397 98.7672 13.7063 98.2058 13.5729C97.6444 13.4395 97.0942 13.3283 96.544 13.2394C95.9938 13.1505 95.5222 13.0059 95.1405 12.817C94.7587 12.628 94.5678 12.2945 94.5678 11.8165C94.5678 11.3608 94.7475 11.0273 95.118 10.805C95.4885 10.5826 95.9489 10.4826 96.5215 10.4826C97.184 10.4826 97.8016 10.6271 98.3743 10.9272L98.5988 12.3723L99.7778 12.2278L99.5532 10.138C99.1715 9.90456 98.7111 9.71558 98.1609 9.55996C97.6107 9.40433 97.0268 9.31541 96.398 9.31541C95.5671 9.31541 94.8036 9.51549 94.0962 9.90456C93.3889 10.2936 93.0408 10.9606 93.0408 11.9166C93.0408 12.6169 93.2317 13.1282 93.6134 13.4506C93.9952 13.7841 94.4668 14.0064 95.0395 14.1398C95.6121 14.2732 96.1735 14.3843 96.7349 14.4844C97.2963 14.5733 97.7679 14.7289 98.1497 14.929C98.5314 15.1291 98.7223 15.4737 98.7223 15.9739C98.7223 16.4853 98.4753 16.8632 97.9813 17.1078C97.4872 17.3523 96.9258 17.4746 96.2858 17.4746C95.5672 17.4746 94.8934 17.3301 94.2759 17.03L94.3321 15.8406L93.198 15.7183L92.9173 17.7525C93.3103 18.0082 93.8268 18.2194 94.4556 18.3861C95.0843 18.5529 95.7131 18.6418 96.3532 18.6418C97.4423 18.6418 98.3518 18.3973 99.0816 17.897C99.8115 17.419 100.182 16.7298 100.182 15.8628Z" fill="#263238"/>
<path d="M105.752 22.7436V0.00012207H111.871V22.7325H105.752V22.7436ZM106.65 18.4528H111.243V17.3079H109.659V9.50438H106.617V10.6493H108.245V17.3079H106.661V18.4528H106.65ZM108.087 5.35808V7.19223H109.637V5.35808H108.087Z" fill="#263238"/>
<path d="M116.463 22.7436V0.00012207H126.243V22.7325H116.463V22.7436ZM125.367 15.4404L124.143 15.1736C123.874 16.6854 123.054 17.4413 121.707 17.4413C120.808 17.4413 120.123 17.1411 119.652 16.5409C119.18 15.9406 118.944 15.0958 118.944 14.0286C118.944 13.0615 119.158 12.2389 119.573 11.5497C119.989 10.8605 120.685 10.5271 121.65 10.5271C122.391 10.5271 123.043 10.6938 123.582 11.0273L123.93 12.5391L125.109 12.3946L124.761 10.238C124.3 9.89344 123.818 9.64889 123.312 9.5155C122.807 9.3821 122.257 9.31541 121.662 9.31541C120.258 9.31541 119.191 9.80451 118.495 10.7827C117.788 11.7609 117.44 12.8726 117.44 14.1064C117.44 15.5404 117.81 16.6631 118.563 17.4524C119.304 18.2527 120.303 18.6529 121.549 18.6529C122.796 18.6529 123.716 18.3083 124.3 17.6302C124.884 16.941 125.243 16.2185 125.367 15.4404Z" fill="#263238"/>
<path d="M40.4932 35.1603C40.235 35.6272 39.8532 35.994 39.3592 36.2497C38.8539 36.5053 38.2588 36.6387 37.5626 36.6387H35.5527V30.3693H37.5626C38.2588 30.3693 38.8651 30.4915 39.3592 30.7472C39.8532 31.0029 40.235 31.3586 40.4932 31.8366C40.7515 32.3146 40.875 32.8593 40.875 33.504C40.875 34.1376 40.7515 34.6934 40.4932 35.1603ZM39.3816 35.2826C39.8195 34.8602 40.0329 34.271 40.0329 33.504C40.0329 32.737 39.8195 32.1478 39.3816 31.7254C38.9437 31.303 38.3149 31.0918 37.484 31.0918H36.35V35.9162H37.484C38.3149 35.9162 38.9437 35.705 39.3816 35.2826Z" fill="#FF5196"/>
<path d="M45.0404 31.0251V33.1705H47.4433V33.793H45.0404V35.9829H47.7127V36.6387H44.2207V30.3693H47.7127V31.0251H45.0404Z" fill="#FF5196"/>
<path d="M54.8098 35.8384C54.6638 36.0941 54.4505 36.3053 54.1585 36.4609C53.8666 36.6166 53.5073 36.7055 53.0694 36.7055C52.6539 36.7055 52.2722 36.6277 51.9465 36.4832C51.6209 36.3275 51.3627 36.1274 51.1606 35.8607C50.9697 35.5939 50.8574 35.2937 50.8237 34.9603H51.6995C51.722 35.1381 51.7781 35.316 51.8792 35.4827C51.9802 35.6495 52.1374 35.794 52.3283 35.9051C52.5192 36.0163 52.755 36.0719 53.0357 36.0719C53.395 36.0719 53.6757 35.9829 53.8666 35.7828C54.0575 35.5828 54.1585 35.3493 54.1585 35.0492C54.1585 34.7935 54.0912 34.5823 53.9564 34.4267C53.8217 34.2711 53.6533 34.1377 53.4624 34.0487C53.2715 33.9598 52.9908 33.8598 52.6539 33.7486C52.2497 33.6152 51.9353 33.4929 51.6883 33.3818C51.4413 33.2706 51.2392 33.0928 51.0707 32.8593C50.9023 32.6259 50.8125 32.3257 50.8125 31.9478C50.8125 31.6254 50.8911 31.3364 51.0483 31.0807C51.2055 30.8362 51.43 30.6361 51.7332 30.5027C52.0251 30.3693 52.3845 30.3026 52.7775 30.3026C53.395 30.3026 53.9003 30.4471 54.2596 30.7473C54.6301 31.0474 54.8322 31.4253 54.8996 31.8922H54.0238C53.9789 31.6477 53.8441 31.4253 53.642 31.2364C53.4287 31.0474 53.148 30.9473 52.7887 30.9473C52.463 30.9473 52.1936 31.0363 52.0027 31.203C51.8006 31.3698 51.7108 31.6143 51.7108 31.9144C51.7108 32.159 51.7781 32.3591 51.9017 32.5036C52.0364 32.6592 52.1936 32.7704 52.3845 32.8593C52.5753 32.9482 52.8448 33.0372 53.1704 33.1483C53.5747 33.2817 53.9003 33.404 54.1585 33.5263C54.4056 33.6486 54.6189 33.8264 54.7873 34.0599C54.9557 34.2933 55.0456 34.6157 55.0456 35.0158C55.0231 35.3049 54.9558 35.5828 54.8098 35.8384Z" fill="#FF5196"/>
<path d="M59.1888 30.3693V36.6387H58.3691V30.3693H59.1888Z" fill="#FF5196"/>
<path d="M67.4742 30.8473C67.9795 31.2141 68.3163 31.7032 68.4847 32.3257H67.6202C67.4742 31.9478 67.2159 31.6365 66.8679 31.4142C66.5198 31.1808 66.1043 31.0696 65.6215 31.0696C65.1948 31.0696 64.8018 31.1697 64.465 31.3698C64.1281 31.5698 63.8587 31.8478 63.6566 32.2146C63.4657 32.5814 63.3646 33.0149 63.3646 33.5152C63.3646 34.0265 63.4657 34.4712 63.6566 34.838C63.8474 35.2048 64.1281 35.4938 64.4762 35.6939C64.8243 35.894 65.2285 35.9941 65.6889 35.9941C66.0819 35.9941 66.4299 35.9051 66.7556 35.7495C67.0812 35.5828 67.3394 35.3382 67.5528 35.027C67.7661 34.7157 67.8784 34.3378 67.9233 33.9153H65.4306V33.3151H68.6082V34.0599C68.5521 34.5601 68.3949 35.0047 68.1367 35.416C67.8784 35.8273 67.5303 36.1386 67.0924 36.372C66.6545 36.6054 66.1605 36.7277 65.599 36.7277C64.9927 36.7277 64.4537 36.5943 63.9822 36.3275C63.5106 36.0608 63.1513 35.6828 62.893 35.1937C62.6347 34.7157 62.5 34.1599 62.5 33.5374C62.5 32.9149 62.6347 32.3591 62.893 31.8811C63.1513 31.4031 63.5218 31.014 63.9822 30.7473C64.4425 30.4805 64.9815 30.336 65.5878 30.336C66.3513 30.3137 66.9689 30.4916 67.4742 30.8473Z" fill="#FF5196"/>
<path d="M76.896 36.6387H76.0764L72.7864 31.681V36.6387H71.9668V30.3693H72.7864L76.0764 35.327V30.3693H76.896V36.6387Z" fill="#FF5196"/>
<path d="M88.7082 35.8387C88.5623 36.0943 88.3489 36.3055 88.057 36.4612C87.765 36.6168 87.4058 36.7057 86.9679 36.7057C86.5524 36.7057 86.1706 36.6279 85.845 36.4834C85.5194 36.3278 85.2611 36.1277 85.059 35.8609C84.8681 35.5941 84.7559 35.294 84.7222 34.9605H85.598C85.6204 35.1384 85.6766 35.3162 85.7776 35.483C85.8787 35.6497 86.0359 35.7942 86.2267 35.9054C86.4176 36.0165 86.6534 36.0721 86.9341 36.0721C87.2934 36.0721 87.5741 35.9832 87.765 35.7831C87.9559 35.583 88.057 35.3496 88.057 35.0494C88.057 34.7938 87.9896 34.5826 87.8549 34.4269C87.7201 34.2713 87.5517 34.1379 87.3608 34.049C87.1699 33.96 86.8893 33.86 86.5524 33.7488C86.1482 33.6155 85.8337 33.4932 85.5867 33.382C85.3397 33.2709 85.1376 33.093 84.9692 32.8596C84.8007 32.6261 84.7109 32.326 84.7109 31.948C84.7109 31.6257 84.7895 31.3367 84.9467 31.081C85.1039 30.8364 85.3285 30.6363 85.6317 30.5029C85.9236 30.3696 86.2829 30.3029 86.6759 30.3029C87.2935 30.3029 87.7987 30.4474 88.1581 30.7475C88.5286 31.0476 88.7307 31.4256 88.7981 31.8925H87.9222C87.8773 31.6479 87.7426 31.4256 87.5404 31.2366C87.3271 31.0476 87.0465 30.9476 86.6871 30.9476C86.3615 30.9476 86.092 31.0365 85.9011 31.2033C85.699 31.37 85.6092 31.6146 85.6092 31.9147C85.6092 32.1592 85.6765 32.3593 85.8001 32.5038C85.9348 32.6595 86.092 32.7706 86.2829 32.8596C86.4738 32.9485 86.7432 33.0374 87.0689 33.1486C87.4731 33.282 87.7987 33.4042 88.057 33.5265C88.304 33.6488 88.5173 33.8267 88.6858 34.0601C88.8542 34.2935 88.944 34.6159 88.944 35.0161C88.9215 35.3051 88.8542 35.583 88.7082 35.8387Z" fill="#FF5196"/>
<path d="M96.1516 30.3693V31.0251H94.3662V36.6387H93.5353V31.0251H91.75V30.3693H96.1516Z" fill="#FF5196"/>
<path d="M99.971 30.3693V34.1265C99.971 34.7379 100.106 35.1936 100.386 35.4938C100.667 35.7828 101.038 35.9384 101.532 35.9384C102.015 35.9384 102.385 35.7939 102.655 35.4938C102.924 35.1936 103.059 34.749 103.059 34.1376V30.3804H103.879V34.1376C103.879 34.9936 103.665 35.6383 103.238 36.0607C102.812 36.4942 102.239 36.7054 101.521 36.7054C100.813 36.7054 100.241 36.4942 99.8139 36.0607C99.3872 35.6272 99.1738 34.9936 99.1738 34.1376V30.3804H99.971V30.3693Z" fill="#FF5196"/>
<path d="M112.333 35.1603C112.075 35.6272 111.693 35.994 111.199 36.2497C110.694 36.5053 110.099 36.6387 109.402 36.6387H107.393V30.3693H109.402C110.099 30.3693 110.705 30.4915 111.199 30.7472C111.693 31.0029 112.075 31.3586 112.333 31.8366C112.591 32.3146 112.715 32.8593 112.715 33.504C112.715 34.1376 112.591 34.6934 112.333 35.1603ZM111.233 35.2826C111.671 34.8602 111.884 34.271 111.884 33.504C111.884 32.737 111.671 32.1478 111.233 31.7254C110.795 31.303 110.166 31.0918 109.335 31.0918H108.201V35.9162H109.335C110.155 35.9162 110.795 35.705 111.233 35.2826Z" fill="#FF5196"/>
<path d="M116.89 30.3693V36.6387H116.07V30.3693H116.89Z" fill="#FF5196"/>
<path d="M124.931 30.7029C125.403 30.9808 125.773 31.3588 126.043 31.8479C126.312 32.337 126.447 32.8928 126.447 33.5042C126.447 34.1156 126.312 34.6714 126.043 35.1605C125.773 35.6496 125.403 36.0275 124.931 36.3054C124.46 36.5833 123.932 36.7167 123.348 36.7167C122.764 36.7167 122.225 36.5833 121.754 36.3054C121.282 36.0275 120.9 35.6496 120.631 35.1605C120.361 34.6714 120.227 34.1156 120.227 33.5042C120.227 32.8928 120.361 32.337 120.631 31.8479C120.9 31.3588 121.271 30.9808 121.754 30.7029C122.236 30.425 122.764 30.2916 123.348 30.2916C123.932 30.2916 124.46 30.425 124.931 30.7029ZM122.169 31.3477C121.821 31.5477 121.552 31.8256 121.361 32.2036C121.17 32.5704 121.069 33.004 121.069 33.5042C121.069 33.9933 121.17 34.4268 121.361 34.8048C121.552 35.1827 121.821 35.4606 122.169 35.6607C122.517 35.8608 122.899 35.9608 123.337 35.9608C123.763 35.9608 124.156 35.8608 124.505 35.6607C124.853 35.4606 125.122 35.1716 125.313 34.8048C125.504 34.4379 125.605 34.0044 125.605 33.5153C125.605 33.0151 125.504 32.5815 125.313 32.2147C125.122 31.8479 124.853 31.5589 124.505 31.3588C124.156 31.1587 123.775 31.0586 123.337 31.0586C122.91 31.0475 122.517 31.1476 122.169 31.3477Z" fill="#FF5196"/>
</svg>
