<svg width="34" height="33" viewBox="0 0 34 33" fill="none" xmlns="http://www.w3.org/2000/svg">
<path d="M17.8338 23.6822L15.1338 31.0087C15.0539 31.224 14.91 31.4097 14.7215 31.5408C14.5329 31.6719 14.3088 31.7422 14.0791 31.7422C13.8495 31.7422 13.6253 31.6719 13.4368 31.5408C13.2482 31.4097 13.1044 31.224 13.0244 31.0087L10.3244 23.6822C10.2675 23.5275 10.1776 23.3871 10.0611 23.2705C9.94452 23.154 9.80408 23.0641 9.64944 23.0072L2.32287 20.3072C2.10757 20.2272 1.92189 20.0833 1.79076 19.8948C1.65964 19.7063 1.58936 19.4821 1.58936 19.2525C1.58936 19.0228 1.65964 18.7987 1.79076 18.6101C1.92189 18.4216 2.10757 18.2777 2.32287 18.1978L9.64944 15.4978C9.80408 15.4408 9.94452 15.3509 10.0611 15.2344C10.1776 15.1179 10.2675 14.9774 10.3244 14.8228L13.0244 7.49621C13.1044 7.28091 13.2482 7.09523 13.4368 6.9641C13.6253 6.83298 13.8495 6.7627 14.0791 6.7627C14.3088 6.7627 14.5329 6.83298 14.7215 6.9641C14.91 7.09523 15.0539 7.28091 15.1338 7.49621L17.8338 14.8228C17.8908 14.9774 17.9807 15.1179 18.0972 15.2344C18.2137 15.3509 18.3542 15.4408 18.5088 15.4978L25.8354 18.1978C26.0507 18.2777 26.2364 18.4216 26.3675 18.6101C26.4986 18.7987 26.5689 19.0228 26.5689 19.2525C26.5689 19.4821 26.4986 19.7063 26.3675 19.8948C26.2364 20.0833 26.0507 20.2272 25.8354 20.3072L18.5088 23.0072C18.3542 23.0641 18.2137 23.154 18.0972 23.2705C17.9807 23.3871 17.8908 23.5275 17.8338 23.6822V23.6822Z" stroke="#303030" stroke-width="2" stroke-linecap="round" stroke-linejoin="round"/>
<path d="M23.0776 1.25195V8.00195" stroke="#303030" stroke-width="2" stroke-linecap="round" stroke-linejoin="round"/>
<path d="M26.4526 4.62695H19.7026" stroke="#303030" stroke-width="2" stroke-linecap="round" stroke-linejoin="round"/>
<path d="M29.8276 9.12695V13.627" stroke="#303030" stroke-width="2" stroke-linecap="round" stroke-linejoin="round"/>
<path d="M32.0776 11.377H27.5776" stroke="#303030" stroke-width="2" stroke-linecap="round" stroke-linejoin="round"/>
</svg>
