<svg width="28" height="27" viewBox="0 0 28 27" fill="none" xmlns="http://www.w3.org/2000/svg">
<path d="M17.6419 17.7458L14.8672 25.3762C14.7992 25.5593 14.6769 25.7172 14.5165 25.8287C14.3562 25.9402 14.1655 26 13.9702 26C13.7749 26 13.5843 25.9402 13.4239 25.8287C13.2636 25.7172 13.1412 25.5593 13.0732 25.3762L10.2985 17.7458C10.2501 17.6142 10.1736 17.4948 10.0745 17.3957C9.97542 17.2966 9.85598 17.2201 9.72446 17.1717L2.09406 14.397C1.91095 14.329 1.75303 14.2066 1.64151 14.0463C1.52999 13.886 1.47021 13.6953 1.47021 13.5C1.47021 13.3047 1.52999 13.114 1.64151 12.9537C1.75303 12.7934 1.91095 12.671 2.09406 12.603L9.72446 9.82832C9.85598 9.77986 9.97542 9.70343 10.0745 9.60432C10.1736 9.50521 10.2501 9.38577 10.2985 9.25424L13.0732 1.62384C13.1412 1.44073 13.2636 1.28281 13.4239 1.17129C13.5843 1.05977 13.7749 1 13.9702 1C14.1655 1 14.3562 1.05977 14.5165 1.17129C14.6769 1.28281 14.7992 1.44073 14.8672 1.62384L17.6419 9.25424C17.6904 9.38577 17.7668 9.50521 17.8659 9.60432C17.965 9.70343 18.0844 9.77986 18.216 9.82832L25.8464 12.603C26.0295 12.671 26.1874 12.7934 26.2989 12.9537C26.4104 13.114 26.4702 13.3047 26.4702 13.5C26.4702 13.6953 26.4104 13.886 26.2989 14.0463C26.1874 14.2066 26.0295 14.329 25.8464 14.397L18.216 17.1717C18.0844 17.2201 17.965 17.2966 17.8659 17.3957C17.7668 17.4948 17.6904 17.6142 17.6419 17.7458V17.7458Z" stroke="white" stroke-width="2" stroke-linecap="round" stroke-linejoin="round"/>
</svg>
