<svg width="68" height="68" viewBox="0 0 68 68" fill="none" xmlns="http://www.w3.org/2000/svg">
<path d="M31.0422 7.46467C32.0481 4.95037 35.6072 4.95037 36.613 7.46467L37.714 10.2168C38.4579 12.0765 40.7804 12.6988 42.3545 11.4603L44.6841 9.6273C46.8123 7.95276 49.8946 9.73233 49.5085 12.4127L49.0859 15.3466C48.8003 17.3291 50.5005 19.0292 52.483 18.7437L55.4169 18.3211C58.0973 17.935 59.8768 21.0173 58.2023 23.1455L56.3693 25.4751C55.1308 27.0492 55.7531 29.3716 57.6127 30.1156L60.3649 31.2166C62.8792 32.2224 62.8792 35.7815 60.3649 36.7873L57.6127 37.8883C55.7531 38.6323 55.1308 40.9547 56.3693 42.5288L58.2023 44.8584C59.8768 46.9866 58.0973 50.0689 55.4169 49.6828L52.4829 49.2602C50.5005 48.9747 48.8003 50.6748 49.0859 52.6573L49.5085 55.5912C49.8946 58.2716 46.8123 60.0511 44.6841 58.3766L42.3545 56.5436C40.7804 55.3051 38.4579 55.9274 37.714 57.7871L36.613 60.5392C35.6072 63.0535 32.0481 63.0535 31.0422 60.5392L29.9413 57.7871C29.1973 55.9274 26.8749 55.3051 25.3008 56.5436L22.9712 58.3766C20.843 60.0511 17.7607 58.2716 18.1468 55.5912L18.5694 52.6573C18.8549 50.6748 17.1548 48.9747 15.1723 49.2602L12.2384 49.6828C9.55801 50.0689 7.77845 46.9866 9.45298 44.8584L11.2859 42.5288C12.5245 40.9547 11.9021 38.6323 10.0425 37.8883L7.29035 36.7873C4.77605 35.7815 4.77605 32.2224 7.29035 31.2166L10.0425 30.1156C11.9021 29.3716 12.5245 27.0492 11.2859 25.4751L9.45298 23.1455C7.77845 21.0173 9.55801 17.935 12.2384 18.3211L15.1723 18.7437C17.1548 19.0292 18.8549 17.3291 18.5694 15.3466L18.1468 12.4127C17.7607 9.73233 20.843 7.95277 22.9712 9.6273L25.3008 11.4603C26.8749 12.6988 29.1973 12.0765 29.9413 10.2169L31.0422 7.46467Z" fill="#39DD49"/>
<path d="M44.3276 23.502L24.3276 43.502" stroke="#303030" stroke-width="3" stroke-linecap="round" stroke-linejoin="round"/>
<path d="M27.3276 30.502C29.5368 30.502 31.3276 28.7111 31.3276 26.502C31.3276 24.2928 29.5368 22.502 27.3276 22.502C25.1185 22.502 23.3276 24.2928 23.3276 26.502C23.3276 28.7111 25.1185 30.502 27.3276 30.502Z" stroke="#303030" stroke-width="3" stroke-linecap="round" stroke-linejoin="round"/>
<path d="M41.3276 44.502C43.5368 44.502 45.3276 42.7111 45.3276 40.502C45.3276 38.2928 43.5368 36.502 41.3276 36.502C39.1185 36.502 37.3276 38.2928 37.3276 40.502C37.3276 42.7111 39.1185 44.502 41.3276 44.502Z" stroke="#303030" stroke-width="3" stroke-linecap="round" stroke-linejoin="round"/>
</svg>
